<svg xmlns="http://www.w3.org/2000/svg" xmlns:xlink="http://www.w3.org/1999/xlink" width="100" zoomAndPan="magnify" viewBox="0 0 75 74.999997" height="100" preserveAspectRatio="xMidYMid meet" version="1.0"><defs><filter x="0%" y="0%" width="100%" height="100%" id="f449ac7c62"><feColorMatrix values="0 0 0 0 1 0 0 0 0 1 0 0 0 0 1 0 0 0 1 0" color-interpolation-filters="sRGB"/></filter><mask id="3b48841970"><g filter="url(#f449ac7c62)"><rect x="-7.5" width="90" fill="#000000" y="-7.5" height="89.999996" fill-opacity="0.25"/></g></mask><clipPath id="84e446b90e"><path d="M 19 0.160156 L 25.960938 0.160156 L 25.960938 4 L 19 4 Z M 19 0.160156 " clip-rule="nonzero"/></clipPath><clipPath id="04f30e0689"><path d="M 0.0390625 0.160156 L 7 0.160156 L 7 4 L 0.0390625 4 Z M 0.0390625 0.160156 " clip-rule="nonzero"/></clipPath><clipPath id="0e4c4dbd6f"><rect x="0" width="26" y="0" height="4"/></clipPath><mask id="7bff7c7af8"><g filter="url(#f449ac7c62)"><rect x="-7.5" width="90" fill="#000000" y="-7.5" height="89.999996" fill-opacity="0.5"/></g></mask><clipPath id="7005d8e137"><path d="M 0.480469 3 L 7 3 L 7 11 L 0.480469 11 Z M 0.480469 3 " clip-rule="nonzero"/></clipPath><clipPath id="bc63c3fcb8"><path d="M 11 0.199219 L 13.199219 0.199219 L 13.199219 3 L 11 3 Z M 11 0.199219 " clip-rule="nonzero"/></clipPath><clipPath id="4bfebfbe76"><rect x="0" width="14" y="0" height="11"/></clipPath><clipPath id="92b1a567b4"><path d="M 7.40625 31 L 14 31 L 14 44 L 7.40625 44 Z M 7.40625 31 " clip-rule="nonzero"/></clipPath><clipPath id="48ddf5c08e"><path d="M 7.40625 7.460938 L 67.40625 7.460938 L 67.40625 67.460938 L 7.40625 67.460938 Z M 7.40625 7.460938 " clip-rule="nonzero"/></clipPath></defs><path fill="#b1bec6" d="M 29.460938 65.015625 C 29.457031 65.015625 29.457031 65.015625 29.453125 65.015625 C 28.871094 64.992188 28.3125 64.757812 27.882812 64.359375 C 27.78125 64.261719 27.773438 64.097656 27.871094 63.992188 C 27.96875 63.886719 28.132812 63.882812 28.234375 63.980469 C 28.574219 64.292969 29.015625 64.480469 29.472656 64.5 C 29.617188 64.503906 29.726562 64.625 29.722656 64.769531 C 29.714844 64.90625 29.601562 65.015625 29.460938 65.015625 Z M 30.898438 64.53125 C 30.824219 64.53125 30.75 64.496094 30.699219 64.433594 C 30.609375 64.324219 30.625 64.160156 30.738281 64.070312 C 30.75 64.058594 30.765625 64.042969 30.78125 64.03125 L 31.90625 63.058594 C 32.011719 62.960938 32.175781 62.976562 32.269531 63.082031 C 32.363281 63.191406 32.351562 63.355469 32.242188 63.449219 L 31.121094 64.425781 C 31.101562 64.441406 31.082031 64.457031 31.0625 64.472656 C 31.015625 64.511719 30.957031 64.53125 30.898438 64.53125 Z M 27.390625 63.0625 C 27.261719 63.0625 27.148438 62.960938 27.136719 62.828125 C 27.128906 62.75 27.125 62.671875 27.125 62.59375 L 27.125 61.25 C 27.125 61.105469 27.238281 60.988281 27.382812 60.988281 C 27.527344 60.988281 27.640625 61.105469 27.640625 61.25 L 27.640625 62.59375 C 27.640625 62.65625 27.644531 62.71875 27.648438 62.78125 C 27.664062 62.925781 27.558594 63.050781 27.414062 63.0625 C 27.40625 63.0625 27.398438 63.066406 27.390625 63.066406 Z M 33.246094 62.496094 C 33.175781 62.496094 33.101562 62.464844 33.050781 62.40625 C 32.957031 62.296875 32.96875 62.132812 33.078125 62.039062 L 34.25 61.023438 C 34.359375 60.929688 34.523438 60.941406 34.617188 61.046875 C 34.710938 61.15625 34.699219 61.320312 34.589844 61.414062 L 33.417969 62.433594 C 33.367188 62.476562 33.308594 62.496094 33.246094 62.496094 Z M 35.59375 60.457031 C 35.523438 60.457031 35.449219 60.429688 35.398438 60.371094 C 35.304688 60.261719 35.316406 60.097656 35.425781 60.003906 L 36.597656 58.984375 C 36.707031 58.890625 36.871094 58.902344 36.964844 59.011719 C 37.058594 59.121094 37.042969 59.285156 36.9375 59.378906 L 35.761719 60.394531 C 35.714844 60.4375 35.652344 60.460938 35.59375 60.460938 Z M 27.382812 59.953125 C 27.242188 59.953125 27.125 59.835938 27.125 59.695312 L 27.125 58.136719 C 27.125 57.996094 27.242188 57.878906 27.382812 57.878906 C 27.527344 57.878906 27.640625 57.996094 27.640625 58.136719 L 27.640625 59.695312 C 27.640625 59.835938 27.527344 59.953125 27.382812 59.953125 Z M 27.382812 56.839844 C 27.242188 56.839844 27.125 56.726562 27.125 56.582031 L 27.125 55.921875 C 27.125 55.777344 27.242188 55.660156 27.382812 55.660156 C 27.527344 55.660156 27.640625 55.777344 27.640625 55.921875 L 27.640625 56.582031 C 27.640625 56.726562 27.527344 56.839844 27.382812 56.839844 Z M 27.382812 56.839844 " fill-opacity="1" fill-rule="nonzero"/><path fill="#b1bec6" d="M 54.574219 65.019531 C 54.3125 65.019531 54.054688 64.976562 53.808594 64.890625 C 53.675781 64.84375 53.601562 64.695312 53.648438 64.5625 C 53.695312 64.425781 53.84375 64.355469 53.976562 64.402344 C 54.167969 64.464844 54.371094 64.5 54.574219 64.5 C 54.824219 64.5 55.074219 64.449219 55.3125 64.351562 C 55.441406 64.296875 55.59375 64.359375 55.648438 64.492188 C 55.703125 64.625 55.640625 64.773438 55.511719 64.832031 C 55.210938 64.957031 54.894531 65.019531 54.574219 65.019531 Z M 52.632812 64.015625 C 52.574219 64.015625 52.511719 63.996094 52.464844 63.953125 L 51.289062 62.9375 C 51.183594 62.84375 51.171875 62.679688 51.265625 62.570312 C 51.359375 62.460938 51.519531 62.449219 51.628906 62.542969 L 52.800781 63.5625 C 52.910156 63.65625 52.921875 63.820312 52.828125 63.925781 C 52.777344 63.984375 52.707031 64.015625 52.632812 64.015625 Z M 56.523438 63.8125 C 56.484375 63.8125 56.445312 63.804688 56.410156 63.789062 C 56.28125 63.722656 56.226562 63.566406 56.289062 63.441406 C 56.417969 63.179688 56.484375 62.894531 56.484375 62.59375 L 56.484375 62.03125 C 56.484375 61.890625 56.597656 61.773438 56.742188 61.773438 C 56.882812 61.773438 57 61.890625 57 62.03125 L 57 62.59375 C 57 62.976562 56.917969 63.339844 56.753906 63.667969 C 56.710938 63.761719 56.617188 63.8125 56.523438 63.8125 Z M 50.289062 61.980469 C 50.226562 61.980469 50.167969 61.960938 50.117188 61.917969 L 48.945312 60.898438 C 48.835938 60.804688 48.824219 60.640625 48.917969 60.535156 C 49.011719 60.425781 49.175781 60.414062 49.28125 60.507812 L 50.457031 61.523438 C 50.5625 61.617188 50.574219 61.78125 50.484375 61.890625 C 50.433594 61.949219 50.359375 61.980469 50.285156 61.980469 Z M 56.742188 60.734375 C 56.597656 60.734375 56.484375 60.621094 56.484375 60.476562 L 56.484375 58.921875 C 56.484375 58.777344 56.597656 58.660156 56.742188 58.660156 C 56.886719 58.660156 57 58.777344 57 58.921875 L 57 60.476562 C 57 60.621094 56.886719 60.734375 56.742188 60.734375 Z M 47.941406 59.945312 C 47.878906 59.945312 47.820312 59.925781 47.769531 59.882812 L 46.984375 59.199219 C 46.878906 59.105469 46.867188 58.945312 46.960938 58.835938 C 47.050781 58.726562 47.214844 58.714844 47.324219 58.808594 L 48.109375 59.488281 C 48.21875 59.582031 48.230469 59.746094 48.136719 59.855469 C 48.085938 59.914062 48.011719 59.945312 47.941406 59.945312 Z M 56.742188 57.625 C 56.597656 57.625 56.484375 57.507812 56.484375 57.367188 L 56.484375 55.808594 C 56.484375 55.667969 56.597656 55.550781 56.742188 55.550781 C 56.886719 55.550781 57 55.667969 57 55.808594 L 57 57.367188 C 57 57.507812 56.886719 57.625 56.742188 57.625 Z M 56.742188 54.511719 C 56.597656 54.511719 56.484375 54.398438 56.484375 54.253906 L 56.484375 52.699219 C 56.484375 52.554688 56.597656 52.4375 56.742188 52.4375 C 56.886719 52.4375 57 52.554688 57 52.699219 L 57 54.253906 C 57 54.398438 56.886719 54.511719 56.742188 54.511719 Z M 56.742188 51.402344 C 56.597656 51.402344 56.484375 51.285156 56.484375 51.140625 L 56.484375 49.585938 C 56.484375 49.441406 56.597656 49.328125 56.742188 49.328125 C 56.886719 49.328125 57 49.441406 57 49.585938 L 57 51.140625 C 57 51.285156 56.886719 51.402344 56.742188 51.402344 Z M 56.742188 48.289062 C 56.597656 48.289062 56.484375 48.175781 56.484375 48.03125 L 56.484375 46.476562 C 56.484375 46.332031 56.597656 46.214844 56.742188 46.214844 C 56.886719 46.214844 57 46.332031 57 46.476562 L 57 48.03125 C 57 48.175781 56.886719 48.289062 56.742188 48.289062 Z M 56.742188 45.179688 C 56.597656 45.179688 56.484375 45.0625 56.484375 44.917969 L 56.484375 43.363281 C 56.484375 43.21875 56.597656 43.105469 56.742188 43.105469 C 56.886719 43.105469 57 43.21875 57 43.363281 L 57 44.917969 C 57 45.0625 56.886719 45.179688 56.742188 45.179688 Z M 56.742188 42.066406 C 56.597656 42.066406 56.484375 41.949219 56.484375 41.808594 L 56.484375 40.253906 C 56.484375 40.109375 56.597656 39.992188 56.742188 39.992188 C 56.886719 39.992188 57 40.109375 57 40.253906 L 57 41.808594 C 57 41.949219 56.886719 42.066406 56.742188 42.066406 Z M 56.742188 38.957031 C 56.597656 38.957031 56.484375 38.839844 56.484375 38.695312 L 56.484375 37.140625 C 56.484375 36.996094 56.597656 36.882812 56.742188 36.882812 C 56.886719 36.882812 57 36.996094 57 37.140625 L 57 38.695312 C 57 38.839844 56.886719 38.957031 56.742188 38.957031 Z M 56.742188 35.84375 C 56.597656 35.84375 56.484375 35.726562 56.484375 35.585938 L 56.484375 34.027344 C 56.484375 33.886719 56.597656 33.769531 56.742188 33.769531 C 56.886719 33.769531 57 33.886719 57 34.027344 L 57 35.585938 C 57 35.726562 56.886719 35.84375 56.742188 35.84375 Z M 56.742188 32.734375 C 56.597656 32.734375 56.484375 32.617188 56.484375 32.472656 L 56.484375 30.917969 C 56.484375 30.773438 56.597656 30.660156 56.742188 30.660156 C 56.886719 30.660156 57 30.773438 57 30.917969 L 57 32.472656 C 57 32.617188 56.886719 32.734375 56.742188 32.734375 Z M 56.742188 29.621094 C 56.597656 29.621094 56.484375 29.503906 56.484375 29.363281 L 56.484375 29.09375 C 56.484375 28.710938 56.371094 28.34375 56.15625 28.027344 C 56.078125 27.90625 56.109375 27.746094 56.226562 27.667969 C 56.34375 27.585938 56.503906 27.617188 56.585938 27.734375 C 56.859375 28.136719 57 28.605469 57 29.09375 L 57 29.359375 C 57 29.503906 56.886719 29.621094 56.742188 29.621094 Z M 55.132812 27.261719 C 55.109375 27.261719 55.089844 27.257812 55.066406 27.253906 C 54.910156 27.210938 54.75 27.191406 54.585938 27.191406 L 53.585938 27.191406 C 53.445312 27.191406 53.328125 27.074219 53.328125 26.933594 C 53.328125 26.789062 53.445312 26.671875 53.585938 26.671875 L 54.585938 26.671875 C 54.792969 26.671875 55 26.699219 55.199219 26.75 C 55.335938 26.789062 55.417969 26.929688 55.382812 27.066406 C 55.351562 27.183594 55.246094 27.261719 55.132812 27.261719 Z M 52.035156 27.191406 L 50.484375 27.191406 C 50.339844 27.191406 50.222656 27.074219 50.222656 26.933594 C 50.222656 26.789062 50.339844 26.671875 50.484375 26.671875 L 52.035156 26.671875 C 52.175781 26.671875 52.292969 26.789062 52.292969 26.933594 C 52.292969 27.074219 52.175781 27.191406 52.035156 27.191406 Z M 48.929688 27.191406 L 47.378906 27.191406 C 47.234375 27.191406 47.121094 27.074219 47.121094 26.933594 C 47.121094 26.789062 47.234375 26.671875 47.378906 26.671875 L 48.929688 26.671875 C 49.074219 26.671875 49.191406 26.789062 49.191406 26.933594 C 49.191406 27.074219 49.074219 27.191406 48.929688 27.191406 Z M 48.929688 27.191406 " fill-opacity="1" fill-rule="nonzero"/><path fill="#b1bec6" d="M 44.347656 21.496094 L 16.214844 21.496094 C 14.875 21.496094 13.792969 22.582031 13.792969 23.925781 L 13.792969 61.558594 C 13.792969 63.636719 16.230469 64.753906 17.796875 63.394531 L 28.695312 53.9375 C 29.605469 53.148438 30.957031 53.148438 31.867188 53.9375 L 42.765625 63.394531 C 44.332031 64.753906 46.769531 63.636719 46.769531 61.558594 L 46.769531 23.925781 C 46.769531 22.582031 45.6875 21.496094 44.347656 21.496094 Z M 39.644531 38.222656 C 41.40625 38.222656 42.835938 39.035156 42.835938 40.035156 C 42.835938 41.035156 41.40625 41.847656 39.644531 41.847656 C 37.878906 41.847656 36.453125 41.035156 36.453125 40.035156 C 36.453125 39.035156 37.882812 38.222656 39.644531 38.222656 Z M 20.40625 38.222656 C 22.167969 38.222656 23.59375 39.035156 23.59375 40.035156 C 23.59375 41.035156 22.167969 41.847656 20.40625 41.847656 C 18.644531 41.847656 17.214844 41.035156 17.214844 40.035156 C 17.214844 39.035156 18.640625 38.222656 20.40625 38.222656 Z M 20.40625 38.222656 " fill-opacity="0.5" fill-rule="nonzero"/><path fill="#b1bec6" d="M 44.339844 64.121094 C 43.742188 64.121094 43.15625 63.90625 42.679688 63.492188 L 31.78125 54.039062 C 30.925781 53.296875 29.636719 53.296875 28.78125 54.039062 L 17.882812 63.492188 C 17.117188 64.152344 16.074219 64.304688 15.152344 63.882812 C 14.234375 63.460938 13.664062 62.570312 13.664062 61.558594 L 13.664062 23.925781 C 13.664062 22.515625 14.804688 21.367188 16.214844 21.367188 L 44.347656 21.367188 C 45.753906 21.367188 46.898438 22.515625 46.898438 23.925781 L 46.898438 61.558594 C 46.898438 62.570312 46.328125 63.460938 45.410156 63.882812 C 45.0625 64.042969 44.699219 64.121094 44.339844 64.121094 Z M 16.214844 21.628906 C 14.949219 21.628906 13.921875 22.65625 13.921875 23.925781 L 13.921875 61.558594 C 13.921875 62.46875 14.433594 63.269531 15.261719 63.648438 C 16.085938 64.027344 17.027344 63.890625 17.714844 63.296875 L 28.609375 53.84375 C 29.5625 53.015625 31 53.015625 31.949219 53.84375 L 42.851562 63.296875 C 43.535156 63.890625 44.476562 64.027344 45.300781 63.648438 C 46.128906 63.269531 46.640625 62.46875 46.640625 61.558594 L 46.640625 23.925781 C 46.640625 22.65625 45.613281 21.628906 44.347656 21.628906 Z M 16.214844 21.628906 " fill-opacity="1" fill-rule="nonzero"/><path fill="#b1bec6" d="M 39.644531 41.976562 C 37.8125 41.976562 36.324219 41.105469 36.324219 40.035156 C 36.324219 38.964844 37.8125 38.09375 39.644531 38.09375 C 41.472656 38.09375 42.964844 38.964844 42.964844 40.035156 C 42.964844 41.105469 41.472656 41.976562 39.644531 41.976562 Z M 39.644531 38.355469 C 37.957031 38.355469 36.582031 39.109375 36.582031 40.035156 C 36.582031 40.960938 37.957031 41.71875 39.644531 41.71875 C 41.332031 41.71875 42.707031 40.960938 42.707031 40.035156 C 42.707031 39.109375 41.332031 38.355469 39.644531 38.355469 Z M 39.644531 38.355469 " fill-opacity="1" fill-rule="nonzero"/><path fill="#b1bec6" d="M 20.40625 41.976562 C 18.542969 41.976562 17.085938 41.125 17.085938 40.035156 C 17.085938 38.945312 18.574219 38.09375 20.40625 38.09375 C 22.234375 38.09375 23.722656 38.964844 23.722656 40.035156 C 23.722656 41.105469 22.234375 41.976562 20.40625 41.976562 Z M 20.40625 38.355469 C 18.71875 38.355469 17.34375 39.109375 17.34375 40.035156 C 17.34375 40.960938 18.71875 41.71875 20.40625 41.71875 C 22.09375 41.71875 23.464844 40.960938 23.464844 40.035156 C 23.464844 39.109375 22.089844 38.355469 20.40625 38.355469 Z M 20.40625 38.355469 " fill-opacity="1" fill-rule="nonzero"/><path fill="#b1bec6" d="M 25 36.398438 C 24.988281 36.398438 24.980469 36.398438 24.972656 36.398438 C 24.828125 36.398438 24.714844 36.28125 24.714844 36.136719 C 24.71875 35.996094 24.832031 35.882812 24.976562 35.878906 C 25.46875 35.886719 25.941406 35.769531 26.339844 35.550781 C 27.179688 35.09375 27.703125 34.117188 27.578125 33.230469 C 27.558594 33.085938 27.65625 32.957031 27.796875 32.9375 C 27.9375 32.917969 28.070312 33.015625 28.089844 33.15625 C 28.246094 34.265625 27.628906 35.4375 26.585938 36.007812 C 26.117188 36.261719 25.570312 36.398438 25 36.398438 Z M 25 36.398438 " fill-opacity="1" fill-rule="nonzero"/><path fill="#b1bec6" d="M 24.949219 36.398438 C 24.378906 36.398438 23.832031 36.265625 23.363281 36.007812 C 22.320312 35.4375 21.703125 34.265625 21.859375 33.15625 C 21.878906 33.015625 22.011719 32.917969 22.152344 32.9375 C 22.292969 32.957031 22.390625 33.085938 22.371094 33.230469 C 22.246094 34.113281 22.765625 35.089844 23.609375 35.550781 C 24.003906 35.765625 24.464844 35.878906 24.949219 35.878906 C 24.957031 35.878906 24.964844 35.878906 24.972656 35.878906 C 25.117188 35.878906 25.230469 35.996094 25.234375 36.136719 C 25.234375 36.28125 25.117188 36.398438 24.976562 36.398438 C 24.96875 36.398438 24.957031 36.398438 24.949219 36.398438 Z M 24.949219 36.398438 " fill-opacity="1" fill-rule="nonzero"/><path fill="#b1bec6" d="M 35.613281 36.398438 C 35.605469 36.398438 35.59375 36.398438 35.585938 36.398438 C 35.445312 36.398438 35.328125 36.28125 35.328125 36.136719 C 35.332031 35.996094 35.445312 35.878906 35.589844 35.878906 C 35.597656 35.878906 35.605469 35.878906 35.613281 35.878906 C 36.097656 35.878906 36.558594 35.765625 36.953125 35.550781 C 37.796875 35.09375 38.316406 34.117188 38.191406 33.230469 C 38.171875 33.085938 38.269531 32.957031 38.410156 32.9375 C 38.554688 32.917969 38.683594 33.015625 38.703125 33.15625 C 38.859375 34.265625 38.242188 35.4375 37.199219 36.007812 C 36.730469 36.261719 36.183594 36.398438 35.613281 36.398438 Z M 35.613281 36.398438 " fill-opacity="1" fill-rule="nonzero"/><path fill="#b1bec6" d="M 35.566406 36.398438 C 34.996094 36.398438 34.445312 36.265625 33.976562 36.007812 C 32.9375 35.4375 32.316406 34.265625 32.472656 33.15625 C 32.492188 33.015625 32.625 32.917969 32.765625 32.9375 C 32.90625 32.957031 33.007812 33.085938 32.984375 33.230469 C 32.859375 34.113281 33.382812 35.089844 34.222656 35.550781 C 34.625 35.769531 35.09375 35.886719 35.585938 35.878906 L 35.589844 35.878906 C 35.730469 35.878906 35.847656 35.996094 35.847656 36.136719 C 35.847656 36.28125 35.734375 36.398438 35.589844 36.398438 C 35.582031 36.398438 35.574219 36.398438 35.566406 36.398438 Z M 35.566406 36.398438 " fill-opacity="1" fill-rule="nonzero"/><path fill="#b1bec6" d="M 31.320312 40.777344 C 31.320312 40.875 31.289062 40.96875 31.222656 41.058594 C 31.15625 41.148438 31.0625 41.230469 30.941406 41.300781 C 30.820312 41.367188 30.679688 41.421875 30.519531 41.460938 C 30.363281 41.496094 30.195312 41.515625 30.023438 41.515625 C 29.851562 41.515625 29.6875 41.496094 29.527344 41.460938 C 29.367188 41.421875 29.230469 41.367188 29.105469 41.300781 C 28.984375 41.230469 28.890625 41.148438 28.828125 41.058594 C 28.761719 40.96875 28.726562 40.875 28.726562 40.777344 C 28.726562 40.675781 28.761719 40.582031 28.828125 40.492188 C 28.890625 40.402344 28.984375 40.320312 29.105469 40.253906 C 29.230469 40.183594 29.367188 40.128906 29.527344 40.09375 C 29.6875 40.054688 29.851562 40.035156 30.023438 40.035156 C 30.195312 40.035156 30.363281 40.054688 30.519531 40.09375 C 30.679688 40.128906 30.820312 40.183594 30.941406 40.253906 C 31.0625 40.320312 31.15625 40.402344 31.222656 40.492188 C 31.289062 40.582031 31.320312 40.675781 31.320312 40.777344 Z M 31.320312 40.777344 " fill-opacity="1" fill-rule="nonzero"/><g mask="url(#3b48841970)"><g transform="matrix(1, 0, 0, 1, 17, 38)"><g clip-path="url(#0e4c4dbd6f)"><g clip-path="url(#84e446b90e)"><path fill="#b1bec6" d="M 25.835938 2.035156 C 25.835938 3.035156 24.40625 3.847656 22.644531 3.847656 C 20.882812 3.847656 19.453125 3.035156 19.453125 2.035156 C 19.453125 1.035156 20.882812 0.222656 22.644531 0.222656 C 24.40625 0.222656 25.835938 1.035156 25.835938 2.035156 Z M 25.835938 2.035156 " fill-opacity="1" fill-rule="nonzero"/></g><g clip-path="url(#04f30e0689)"><path fill="#b1bec6" d="M 6.59375 2.035156 C 6.59375 2.277344 6.515625 2.507812 6.351562 2.730469 C 6.191406 2.949219 5.960938 3.144531 5.660156 3.316406 C 5.363281 3.484375 5.015625 3.617188 4.625 3.707031 C 4.234375 3.800781 3.828125 3.847656 3.40625 3.847656 C 2.980469 3.847656 2.574219 3.800781 2.183594 3.707031 C 1.792969 3.617188 1.449219 3.484375 1.148438 3.316406 C 0.851562 3.144531 0.621094 2.949219 0.457031 2.730469 C 0.296875 2.507812 0.214844 2.277344 0.214844 2.035156 C 0.214844 1.796875 0.296875 1.5625 0.457031 1.34375 C 0.621094 1.121094 0.851562 0.925781 1.148438 0.753906 C 1.449219 0.585938 1.792969 0.453125 2.183594 0.363281 C 2.574219 0.269531 2.980469 0.222656 3.40625 0.222656 C 3.828125 0.222656 4.234375 0.269531 4.625 0.363281 C 5.015625 0.453125 5.363281 0.585938 5.660156 0.753906 C 5.960938 0.925781 6.191406 1.121094 6.351562 1.34375 C 6.515625 1.5625 6.59375 1.796875 6.59375 2.035156 Z M 6.59375 2.035156 " fill-opacity="1" fill-rule="nonzero"/></g></g></g></g><path fill="#b1bec6" d="M 20.757812 18.695312 L 39.460938 18.695312 C 39.722656 18.695312 39.941406 18.789062 40.125 18.972656 C 40.308594 19.15625 40.402344 19.378906 40.402344 19.640625 L 40.402344 20.554688 C 40.402344 20.816406 40.308594 21.039062 40.125 21.222656 C 39.941406 21.40625 39.722656 21.496094 39.460938 21.496094 L 20.757812 21.496094 C 20.5 21.496094 20.277344 21.40625 20.09375 21.222656 C 19.910156 21.039062 19.820312 20.816406 19.820312 20.554688 L 19.820312 19.640625 C 19.820312 19.378906 19.910156 19.15625 20.09375 18.972656 C 20.277344 18.789062 20.5 18.695312 20.757812 18.695312 Z M 20.757812 18.695312 " fill-opacity="0.25" fill-rule="nonzero"/><path fill="#b1bec6" d="M 39.460938 21.628906 L 20.757812 21.628906 C 20.167969 21.628906 19.691406 21.144531 19.691406 20.554688 L 19.691406 19.640625 C 19.691406 19.046875 20.171875 18.566406 20.757812 18.566406 L 39.460938 18.566406 C 40.050781 18.566406 40.53125 19.046875 40.53125 19.640625 L 40.53125 20.554688 C 40.53125 21.144531 40.050781 21.628906 39.460938 21.628906 Z M 20.757812 18.824219 C 20.3125 18.824219 19.949219 19.191406 19.949219 19.640625 L 19.949219 20.554688 C 19.949219 21.003906 20.3125 21.367188 20.757812 21.367188 L 39.460938 21.367188 C 39.90625 21.367188 40.273438 21.003906 40.273438 20.554688 L 40.273438 19.640625 C 40.273438 19.191406 39.90625 18.824219 39.460938 18.824219 Z M 20.757812 18.824219 " fill-opacity="1" fill-rule="nonzero"/><path fill="#b1bec6" d="M 42.867188 12.148438 C 42.507812 12.226562 42.183594 12.402344 41.925781 12.648438 C 41.21875 12.480469 40.460938 12.332031 40.402344 12.453125 C 40.285156 12.683594 40.171875 12.855469 39.882812 13.550781 C 39.59375 14.246094 39.539062 15.167969 39.074219 15.574219 C 38.613281 15.980469 39.304688 18.695312 39.304688 18.695312 L 21.722656 18.695312 C 21.722656 18.695312 25.351562 13.144531 28.984375 11.296875 C 32.617188 9.449219 37.457031 10.371094 38.46875 10.546875 C 39.476562 10.71875 42.441406 11.644531 42.835938 12.105469 C 42.84375 12.121094 42.855469 12.132812 42.867188 12.148438 Z M 42.867188 12.148438 " fill-opacity="0.5" fill-rule="nonzero"/><path fill="#b1bec6" d="M 39.472656 18.824219 L 21.480469 18.824219 L 21.613281 18.625 C 21.648438 18.566406 25.304688 13.023438 28.925781 11.179688 C 31.285156 9.980469 34.464844 9.71875 38.378906 10.398438 L 38.492188 10.417969 C 39.472656 10.585938 42.503906 11.515625 42.933594 12.023438 L 43.105469 12.230469 L 42.894531 12.273438 C 42.566406 12.347656 42.261719 12.507812 42.011719 12.742188 L 41.960938 12.792969 L 41.894531 12.773438 C 40.851562 12.527344 40.574219 12.53125 40.503906 12.542969 C 40.480469 12.585938 40.457031 12.625 40.433594 12.671875 C 40.339844 12.847656 40.222656 13.070312 40 13.601562 C 39.902344 13.835938 39.832031 14.105469 39.761719 14.367188 C 39.621094 14.890625 39.488281 15.382812 39.160156 15.671875 C 38.882812 15.914062 39.152344 17.566406 39.429688 18.664062 Z M 21.964844 18.566406 L 39.140625 18.566406 C 38.972656 17.867188 38.535156 15.875 38.992188 15.476562 C 39.261719 15.238281 39.382812 14.78125 39.511719 14.300781 C 39.585938 14.03125 39.660156 13.753906 39.761719 13.5 C 39.988281 12.960938 40.109375 12.730469 40.207031 12.546875 C 40.234375 12.496094 40.261719 12.445312 40.285156 12.394531 C 40.339844 12.289062 40.40625 12.15625 41.886719 12.507812 C 42.097656 12.320312 42.34375 12.175781 42.609375 12.085938 C 41.945312 11.628906 39.390625 10.835938 38.445312 10.671875 L 38.335938 10.652344 C 33.527344 9.820312 30.628906 10.605469 29.046875 11.414062 C 25.875 13.027344 22.65625 17.554688 21.964844 18.566406 Z M 40.515625 12.511719 Z M 40.515625 12.511719 " fill-opacity="1" fill-rule="nonzero"/><path fill="#b1bec6" d="M 45.316406 14.117188 C 45.316406 15.230469 44.414062 16.132812 43.304688 16.132812 C 42.191406 16.132812 41.292969 15.230469 41.292969 14.117188 C 41.292969 13.539062 41.535156 13.015625 41.921875 12.648438 C 42.183594 12.402344 42.507812 12.226562 42.867188 12.148438 C 43.007812 12.117188 43.152344 12.101562 43.304688 12.101562 C 44.414062 12.101562 45.316406 13.003906 45.316406 14.117188 Z M 45.316406 14.117188 " fill-opacity="0.75" fill-rule="nonzero"/><path fill="#b1bec6" d="M 43.304688 16.261719 C 42.125 16.261719 41.164062 15.300781 41.164062 14.117188 C 41.164062 13.527344 41.40625 12.957031 41.835938 12.554688 C 42.117188 12.289062 42.464844 12.101562 42.839844 12.019531 C 42.992188 11.988281 43.148438 11.96875 43.304688 11.96875 C 44.484375 11.96875 45.445312 12.933594 45.445312 14.117188 C 45.445312 15.300781 44.484375 16.261719 43.304688 16.261719 Z M 43.304688 12.230469 C 43.167969 12.230469 43.03125 12.246094 42.894531 12.273438 C 42.566406 12.347656 42.261719 12.507812 42.011719 12.742188 C 41.632812 13.105469 41.421875 13.589844 41.421875 14.117188 C 41.421875 15.15625 42.265625 16.003906 43.304688 16.003906 C 44.339844 16.003906 45.1875 15.15625 45.1875 14.117188 C 45.1875 13.074219 44.339844 12.230469 43.304688 12.230469 Z M 43.304688 12.230469 " fill-opacity="1" fill-rule="nonzero"/><g mask="url(#7bff7c7af8)"><g transform="matrix(1, 0, 0, 1, 48, 13)"><g clip-path="url(#4bfebfbe76)"><g clip-path="url(#7005d8e137)"><path fill="#b1bec6" d="M 6.03125 4.472656 L 6.03125 3.609375 L 0.566406 3.609375 L 0.566406 4.828125 L 4.164062 4.828125 L 0.5625 10.035156 L 0.5625 10.917969 L 6.113281 10.917969 L 6.113281 9.707031 L 2.4375 9.707031 Z M 6.03125 4.472656 " fill-opacity="1" fill-rule="nonzero"/></g><path fill="#b1bec6" d="M 10.289062 2.46875 L 10.289062 1.972656 L 7.148438 1.972656 L 7.148438 2.675781 L 9.21875 2.675781 L 7.148438 5.664062 L 7.148438 6.171875 L 10.335938 6.171875 L 10.335938 5.476562 L 8.226562 5.476562 Z M 10.289062 2.46875 " fill-opacity="1" fill-rule="nonzero"/><g clip-path="url(#bc63c3fcb8)"><path fill="#b1bec6" d="M 12.996094 0.730469 L 12.996094 0.472656 L 11.371094 0.472656 L 11.371094 0.835938 L 12.441406 0.835938 L 11.371094 2.378906 L 11.371094 2.640625 L 13.019531 2.640625 L 13.019531 2.28125 L 11.929688 2.28125 Z M 12.996094 0.730469 " fill-opacity="1" fill-rule="nonzero"/></g></g></g></g><path fill="#b1bec6" d="M 54.242188 24.046875 L 48.433594 24.046875 L 48.433594 22.992188 L 48.453125 22.960938 L 51.917969 17.960938 L 48.4375 17.960938 L 48.4375 16.480469 L 54.160156 16.480469 L 54.160156 17.515625 L 50.683594 22.578125 L 54.242188 22.578125 Z M 48.691406 23.789062 L 53.984375 23.789062 L 53.984375 22.835938 L 50.191406 22.835938 L 53.902344 17.433594 L 53.902344 16.738281 L 48.695312 16.738281 L 48.695312 17.699219 L 52.414062 17.699219 L 48.691406 23.074219 Z M 54.03125 17.472656 Z M 54.03125 17.472656 " fill-opacity="1" fill-rule="nonzero"/><path fill="#b1bec6" d="M 58.464844 19.300781 L 55.019531 19.300781 L 55.019531 18.625 L 56.972656 15.804688 L 55.019531 15.804688 L 55.019531 14.84375 L 58.421875 14.84375 L 58.421875 15.511719 L 56.472656 18.347656 L 58.46875 18.347656 L 58.46875 19.300781 Z M 55.277344 19.042969 L 58.207031 19.042969 L 58.207031 18.605469 L 55.980469 18.605469 L 58.160156 15.429688 L 58.160156 15.101562 L 55.277344 15.101562 L 55.277344 15.542969 L 57.464844 15.542969 L 55.277344 18.707031 Z M 58.289062 15.46875 Z M 58.289062 15.46875 " fill-opacity="1" fill-rule="nonzero"/><path fill="#b1bec6" d="M 61.148438 15.769531 L 59.242188 15.769531 L 59.242188 15.339844 L 60.191406 13.964844 L 59.242188 13.964844 L 59.242188 13.34375 L 61.125 13.34375 L 61.125 13.769531 L 60.175781 15.152344 L 61.148438 15.152344 Z M 59.5 15.511719 L 60.890625 15.511719 L 60.890625 15.410156 L 59.683594 15.410156 L 60.863281 13.6875 L 60.863281 13.601562 L 59.5 13.601562 L 59.5 13.707031 L 60.6875 13.707031 L 59.5 15.417969 Z M 60.996094 13.730469 Z M 60.996094 13.730469 " fill-opacity="1" fill-rule="nonzero"/><path fill="#b1bec6" d="M 40.402344 24.046875 L 19.699219 24.046875 C 19.628906 24.046875 19.570312 23.988281 19.570312 23.917969 C 19.570312 23.847656 19.628906 23.789062 19.699219 23.789062 L 40.402344 23.789062 C 40.472656 23.789062 40.53125 23.847656 40.53125 23.917969 C 40.53125 23.988281 40.472656 24.046875 40.402344 24.046875 Z M 40.402344 24.046875 " fill-opacity="1" fill-rule="nonzero"/><g clip-path="url(#92b1a567b4)"><path fill="#b1bec6" d="M 9.167969 33.21875 C 8.085938 34.304688 7.417969 35.800781 7.417969 37.460938 C 7.417969 40.773438 10.097656 43.460938 13.402344 43.460938 L 13.792969 43.460938 L 13.792969 31.460938 L 13.402344 31.460938 C 11.75 31.460938 10.253906 32.132812 9.167969 33.21875 Z M 9.167969 33.21875 " fill-opacity="0.25" fill-rule="nonzero"/></g><path fill="#b1bec6" d="M 39.644531 38.222656 C 37.882812 38.222656 36.453125 39.035156 36.453125 40.035156 C 36.453125 41.035156 37.882812 41.847656 39.644531 41.847656 C 37.882812 41.847656 36.453125 41.035156 36.453125 40.035156 C 36.453125 39.035156 37.882812 38.222656 39.644531 38.222656 Z M 39.644531 38.222656 " fill-opacity="0.25" fill-rule="nonzero"/><path fill="#b1bec6" d="M 20.40625 38.222656 C 20.769531 38.222656 21.121094 38.261719 21.449219 38.324219 C 21.121094 38.261719 20.769531 38.222656 20.40625 38.222656 Z M 20.40625 38.222656 " fill-opacity="0.25" fill-rule="nonzero"/><path fill="#b1bec6" d="M 40.652344 41.753906 C 41.921875 41.511719 42.835938 40.835938 42.835938 40.035156 C 42.835938 39.234375 41.921875 38.558594 40.652344 38.316406 C 41.921875 38.558594 42.835938 39.234375 42.835938 40.035156 C 42.835938 40.835938 41.921875 41.511719 40.652344 41.753906 Z M 40.652344 41.753906 " fill-opacity="0.25" fill-rule="nonzero"/><g clip-path="url(#48ddf5c08e)"><path fill="#b1bec6" d="M 54.785156 43.460938 L 61.410156 43.460938 C 63.0625 43.460938 64.558594 42.789062 65.640625 41.703125 C 66.726562 40.617188 67.394531 39.117188 67.394531 37.460938 C 67.394531 34.144531 64.714844 31.460938 61.410156 31.460938 L 61.332031 31.460938 C 58.027344 31.460938 55.347656 28.773438 55.347656 25.460938 C 55.347656 23.800781 56.015625 22.300781 57.101562 21.21875 C 58.183594 20.132812 59.679688 19.460938 61.332031 19.460938 L 61.410156 19.460938 C 63.0625 19.460938 64.558594 18.789062 65.640625 17.703125 C 66.722656 16.617188 67.394531 15.117188 67.394531 13.460938 C 67.394531 10.144531 64.714844 7.457031 61.40625 7.457031 L 13.402344 7.457031 C 11.75 7.457031 10.253906 8.132812 9.167969 9.214844 C 8.085938 10.300781 7.417969 11.800781 7.417969 13.457031 C 7.417969 16.773438 10.097656 19.460938 13.402344 19.460938 L 19.835938 19.460938 C 19.921875 19.023438 20.300781 18.695312 20.761719 18.695312 L 39.460938 18.695312 C 39.980469 18.695312 40.402344 19.117188 40.402344 19.640625 L 40.402344 20.554688 C 40.402344 21.074219 39.980469 21.496094 39.460938 21.496094 L 44.351562 21.496094 C 45.6875 21.496094 46.773438 22.582031 46.773438 23.925781 L 46.773438 61.558594 C 46.773438 63.636719 44.332031 64.753906 42.765625 63.390625 L 31.867188 53.9375 C 30.957031 53.148438 29.605469 53.148438 28.695312 53.9375 L 17.800781 63.390625 C 16.230469 64.753906 13.792969 63.636719 13.792969 61.558594 L 13.792969 55.460938 L 13.402344 55.460938 C 11.75 55.460938 10.253906 56.132812 9.167969 57.21875 C 8.085938 58.304688 7.417969 59.804688 7.417969 61.460938 C 7.417969 64.773438 10.097656 67.460938 13.402344 67.460938 L 61.410156 67.460938 C 63.0625 67.460938 64.558594 66.789062 65.640625 65.703125 C 66.726562 64.617188 67.394531 63.117188 67.394531 61.460938 C 67.394531 58.148438 64.714844 55.460938 61.410156 55.460938 L 54.785156 55.460938 C 51.480469 55.460938 48.800781 52.773438 48.800781 49.460938 C 48.800781 47.804688 49.472656 46.304688 50.554688 45.21875 C 51.636719 44.132812 53.132812 43.460938 54.785156 43.460938 Z M 59.371094 15.378906 L 60.441406 13.835938 L 59.371094 13.835938 L 59.371094 13.472656 L 60.996094 13.472656 L 60.996094 13.730469 L 59.929688 15.28125 L 61.019531 15.28125 L 61.019531 15.640625 L 59.371094 15.640625 Z M 55.148438 18.664062 L 57.21875 15.675781 L 55.152344 15.675781 L 55.152344 14.972656 L 58.292969 14.972656 L 58.292969 15.46875 L 56.226562 18.476562 L 58.335938 18.476562 L 58.335938 19.171875 L 55.148438 19.171875 Z M 43.304688 16.132812 C 42.191406 16.132812 41.292969 15.230469 41.292969 14.117188 C 41.292969 13.539062 41.535156 13.015625 41.925781 12.648438 C 41.21875 12.480469 40.460938 12.332031 40.402344 12.453125 C 40.285156 12.683594 40.171875 12.859375 39.882812 13.550781 C 39.59375 14.246094 39.539062 15.171875 39.074219 15.574219 C 38.613281 15.980469 39.304688 18.695312 39.304688 18.695312 L 21.722656 18.695312 C 21.722656 18.695312 25.351562 13.148438 28.984375 11.296875 C 32.617188 9.449219 37.457031 10.375 38.46875 10.546875 C 39.476562 10.71875 42.441406 11.644531 42.835938 12.109375 C 42.84375 12.121094 42.855469 12.136719 42.867188 12.148438 C 43.007812 12.117188 43.152344 12.101562 43.304688 12.101562 C 44.414062 12.101562 45.316406 13.003906 45.316406 14.117188 C 45.316406 15.230469 44.414062 16.136719 43.304688 16.136719 Z M 48.5625 23.917969 L 48.5625 23.035156 L 52.164062 17.832031 L 48.566406 17.832031 L 48.566406 16.609375 L 54.03125 16.609375 L 54.03125 17.476562 L 50.4375 22.710938 L 54.113281 22.710938 L 54.113281 23.917969 L 48.558594 23.917969 Z M 48.5625 23.917969 " fill-opacity="0.25" fill-rule="nonzero"/></g><path fill="#b1bec6" d="M 20.40625 41.847656 C 20.769531 41.847656 21.121094 41.8125 21.449219 41.746094 C 21.121094 41.8125 20.769531 41.847656 20.40625 41.847656 Z M 20.40625 41.847656 " fill-opacity="0.25" fill-rule="nonzero"/></svg>