<svg xmlns="http://www.w3.org/2000/svg" xmlns:xlink="http://www.w3.org/1999/xlink" width="200" zoomAndPan="magnify" viewBox="0 0 150 149.999998" height="200" preserveAspectRatio="xMidYMid meet" version="1.0"><defs><filter x="0%" y="0%" width="100%" height="100%" id="b6bada65be"><feColorMatrix values="0 0 0 0 1 0 0 0 0 1 0 0 0 0 1 0 0 0 1 0" color-interpolation-filters="sRGB"/></filter><mask id="60c0d877cd"><g filter="url(#b6bada65be)"><rect x="-15" width="180" fill="#000000" y="-15" height="179.999997" fill-opacity="0.75"/></g></mask><clipPath id="27f3364a9e"><path d="M 0.519531 0.558594 L 103.480469 0.558594 L 103.480469 56 L 0.519531 56 Z M 0.519531 0.558594 " clip-rule="nonzero"/></clipPath><clipPath id="a5dd2e884d"><rect x="0" width="104" y="0" height="56"/></clipPath><mask id="8fa8b5e5c7"><g filter="url(#b6bada65be)"><rect x="-15" width="180" fill="#000000" y="-15" height="179.999997" fill-opacity="0.75"/></g></mask><clipPath id="d711e61a36"><path d="M 1 0.121094 L 35.238281 0.121094 L 35.238281 17.160156 L 1 17.160156 Z M 1 0.121094 " clip-rule="nonzero"/></clipPath><clipPath id="9a7b7255a4"><rect x="0" width="36" y="0" height="18"/></clipPath><mask id="555d0abd62"><g filter="url(#b6bada65be)"><rect x="-15" width="180" fill="#000000" y="-15" height="179.999997" fill-opacity="0.5"/></g></mask><clipPath id="d7b260a150"><path d="M 0.921875 0.519531 L 20 0.519531 L 20 11 L 0.921875 11 Z M 0.921875 0.519531 " clip-rule="nonzero"/></clipPath><mask id="00d5600348"><g filter="url(#b6bada65be)"><rect x="-52" width="216" fill="#000000" y="-85.999999" height="215.999996" fill-opacity="0.5"/></g></mask><clipPath id="51f9f88b52"><path d="M 1 0.519531 L 19.878906 0.519531 L 19.878906 10.839844 L 1 10.839844 Z M 1 0.519531 " clip-rule="nonzero"/></clipPath><clipPath id="a02cb1d9a7"><rect x="0" width="20" y="0" height="11"/></clipPath><clipPath id="63a519cb09"><path d="M 7 30 L 25 30 L 25 42.039062 L 7 42.039062 Z M 7 30 " clip-rule="nonzero"/></clipPath><mask id="95b134daa6"><g filter="url(#b6bada65be)"><rect x="-52" width="216" fill="#000000" y="-85.999999" height="215.999996" fill-opacity="0.5"/></g></mask><clipPath id="24fc890d1d"><path d="M 1 0.0390625 L 17.921875 0.0390625 L 17.921875 12 L 1 12 Z M 1 0.0390625 " clip-rule="nonzero"/></clipPath><clipPath id="5fa927e806"><rect x="0" width="18" y="0" height="13"/></clipPath><clipPath id="ab9dadc0b0"><path d="M 21 0.519531 L 43 0.519531 L 43 11 L 21 11 Z M 21 0.519531 " clip-rule="nonzero"/></clipPath><mask id="87bba08c18"><g filter="url(#b6bada65be)"><rect x="-52" width="216" fill="#000000" y="-85.999999" height="215.999996" fill-opacity="0.5"/></g></mask><clipPath id="2eb77b4f74"><path d="M 0.238281 0.480469 L 19.441406 0.480469 L 19.441406 14.640625 L 0.238281 14.640625 Z M 0.238281 0.480469 " clip-rule="nonzero"/></clipPath><clipPath id="840b6ac448"><rect x="0" width="20" y="0" height="15"/></clipPath><clipPath id="40ead16588"><path d="M 45 0.519531 L 67 0.519531 L 67 11 L 45 11 Z M 45 0.519531 " clip-rule="nonzero"/></clipPath><clipPath id="f3379dcad4"><path d="M 63 30 L 81 30 L 81 42.039062 L 63 42.039062 Z M 63 30 " clip-rule="nonzero"/></clipPath><mask id="f7f4399d45"><g filter="url(#b6bada65be)"><rect x="-52" width="216" fill="#000000" y="-85.999999" height="215.999996" fill-opacity="0.5"/></g></mask><clipPath id="0e8cffec82"><path d="M 0.320312 0.0390625 L 17.839844 0.0390625 L 17.839844 12 L 0.320312 12 Z M 0.320312 0.0390625 " clip-rule="nonzero"/></clipPath><clipPath id="b2515b341a"><rect x="0" width="18" y="0" height="13"/></clipPath><clipPath id="3075d1c046"><path d="M 68 0.519531 L 87.320312 0.519531 L 87.320312 11 L 68 11 Z M 68 0.519531 " clip-rule="nonzero"/></clipPath><clipPath id="d55545982d"><rect x="0" width="88" y="0" height="43"/></clipPath><clipPath id="7ed2ec4af4"><path d="M 28 116 L 45 116 L 45 132.757812 L 28 132.757812 Z M 28 116 " clip-rule="nonzero"/></clipPath><mask id="b7f914bda5"><g filter="url(#b6bada65be)"><rect x="-15" width="180" fill="#000000" y="-15" height="179.999997" fill-opacity="0.5"/></g></mask><clipPath id="fe8cbc75d0"><path d="M 0.398438 1 L 8 1 L 8 8.640625 L 0.398438 8.640625 Z M 0.398438 1 " clip-rule="nonzero"/></clipPath><clipPath id="7820ebe493"><rect x="0" width="9" y="0" height="9"/></clipPath><clipPath id="eb41131932"><path d="M 80 116 L 96 116 L 96 132.757812 L 80 132.757812 Z M 80 116 " clip-rule="nonzero"/></clipPath><mask id="46b86ba487"><g filter="url(#b6bada65be)"><rect x="-15" width="180" fill="#000000" y="-15" height="179.999997" fill-opacity="0.5"/></g></mask><clipPath id="902968b66b"><path d="M 0.238281 1 L 7.921875 1 L 7.921875 8.640625 L 0.238281 8.640625 Z M 0.238281 1 " clip-rule="nonzero"/></clipPath><clipPath id="c6fd20d09b"><rect x="0" width="8" y="0" height="9"/></clipPath><clipPath id="cd2ebe1256"><path d="M 124 30 L 146.105469 30 L 146.105469 40 L 124 40 Z M 124 30 " clip-rule="nonzero"/></clipPath><mask id="21328afc90"><g filter="url(#b6bada65be)"><rect x="-15" width="180" fill="#000000" y="-15" height="179.999997" fill-opacity="0.25"/></g></mask><clipPath id="4d5040606c"><path d="M 0.441406 0.71875 L 39.800781 0.71875 L 39.800781 39.839844 L 0.441406 39.839844 Z M 0.441406 0.71875 " clip-rule="nonzero"/></clipPath><clipPath id="16b35ebd7d"><rect x="0" width="40" y="0" height="40"/></clipPath><clipPath id="537b2fecee"><path d="M 3.605469 17.257812 L 136 17.257812 L 136 132.757812 L 3.605469 132.757812 Z M 3.605469 17.257812 " clip-rule="nonzero"/></clipPath><mask id="134edbc70b"><g filter="url(#b6bada65be)"><rect x="-15" width="180" fill="#000000" y="-15" height="179.999997" fill-opacity="0.25"/></g></mask><clipPath id="62addc1ef9"><path d="M 0.605469 46 L 17 46 L 17 70 L 0.605469 70 Z M 0.605469 46 " clip-rule="nonzero"/></clipPath><clipPath id="bf0435e397"><path d="M 0.605469 85 L 94 85 L 94 115.71875 L 0.605469 115.71875 Z M 0.605469 85 " clip-rule="nonzero"/></clipPath><clipPath id="9504f2e2f1"><path d="M 0.605469 0.257812 L 132.839844 0.257812 L 132.839844 30 L 0.605469 30 Z M 0.605469 0.257812 " clip-rule="nonzero"/></clipPath><clipPath id="937a944f2e"><path d="M 86 46 L 132.839844 46 L 132.839844 115.71875 L 86 115.71875 Z M 86 46 " clip-rule="nonzero"/></clipPath><clipPath id="523a3540ab"><path d="M 34 100 L 84 100 L 84 115.71875 L 34 115.71875 Z M 34 100 " clip-rule="nonzero"/></clipPath><clipPath id="0310cc5cf9"><rect x="0" width="133" y="0" height="116"/></clipPath></defs><path fill="#38b6ff" d="M 103.082031 100.070312 L 99.992188 112.046875 C 99.261719 114.875 96.710938 116.847656 93.789062 116.847656 L 25.660156 116.847656 C 24.222656 116.847656 23.058594 115.683594 23.058594 114.246094 C 23.058594 112.808594 24.222656 111.644531 25.660156 111.644531 L 93.789062 111.644531 C 94.339844 111.644531 94.816406 111.273438 94.953125 110.746094 L 97.253906 101.832031 L 100.578125 101.832031 C 101.714844 101.832031 102.714844 101.113281 103.082031 100.066406 Z M 103.082031 100.070312 " fill-opacity="1" fill-rule="nonzero"/><path fill="#38b6ff" d="M 93.789062 117.277344 L 25.660156 117.277344 C 23.988281 117.277344 22.628906 115.917969 22.628906 114.246094 C 22.628906 112.574219 23.988281 111.214844 25.660156 111.214844 L 93.789062 111.214844 C 94.140625 111.214844 94.449219 110.976562 94.539062 110.636719 L 96.921875 101.402344 L 100.578125 101.402344 C 101.523438 101.402344 102.367188 100.808594 102.679688 99.925781 L 103.496094 100.175781 L 100.40625 112.152344 C 99.628906 115.167969 96.90625 117.273438 93.792969 117.273438 Z M 25.660156 112.074219 C 24.460938 112.074219 23.488281 113.050781 23.488281 114.246094 C 23.488281 115.445312 24.460938 116.421875 25.660156 116.421875 L 93.789062 116.421875 C 96.515625 116.421875 98.894531 114.578125 99.574219 111.941406 L 102.191406 101.808594 C 101.714844 102.097656 101.160156 102.261719 100.578125 102.261719 L 97.585938 102.261719 L 95.367188 110.855469 C 95.183594 111.574219 94.535156 112.078125 93.789062 112.078125 L 25.660156 112.078125 Z M 25.660156 112.074219 " fill-opacity="1" fill-rule="nonzero"/><g mask="url(#60c0d877cd)"><g transform="matrix(1, 0, 0, 1, 11, 46)"><g clip-path="url(#a5dd2e884d)"><g clip-path="url(#27f3364a9e)"><path fill="#38b6ff" d="M 100.699219 0.820312 L 71.265625 0.820312 C 70.925781 3.3125 70.117188 5.65625 68.929688 7.753906 L 74.070312 7.753906 C 74.457031 7.753906 74.753906 8.097656 74.691406 8.480469 L 73.339844 17.078125 C 73.292969 17.378906 73.027344 17.605469 72.71875 17.605469 L 54.035156 17.605469 C 53.976562 17.605469 53.917969 17.597656 53.867188 17.582031 C 53.851562 17.578125 53.839844 17.574219 53.824219 17.570312 C 53.792969 17.558594 53.765625 17.546875 53.734375 17.53125 C 53.175781 17.582031 52.609375 17.605469 52.035156 17.605469 C 51.394531 17.605469 50.757812 17.574219 50.132812 17.511719 C 50.035156 17.570312 49.921875 17.605469 49.804688 17.605469 L 31.351562 17.605469 C 31.039062 17.605469 30.777344 17.382812 30.730469 17.078125 L 29.375 8.480469 C 29.316406 8.101562 29.609375 7.757812 29.996094 7.757812 L 35.140625 7.757812 C 33.953125 5.65625 33.140625 3.3125 32.804688 0.820312 L 3.371094 0.820312 C 1.652344 0.820312 0.382812 2.425781 0.78125 4.097656 L 12.601562 53.789062 C 12.886719 54.988281 13.960938 55.832031 15.195312 55.832031 L 89.578125 55.832031 C 90.714844 55.832031 91.714844 55.117188 92.082031 54.070312 C 92.125 53.96875 92.152344 53.863281 92.175781 53.753906 L 92.253906 53.410156 L 92.363281 52.925781 L 103.289062 4.09375 L 103.300781 4.0625 C 103.671875 2.398438 102.40625 0.820312 100.699219 0.820312 Z M 11.007812 17.125 L 9.132812 9.25 C 8.949219 8.484375 9.53125 7.753906 10.3125 7.753906 L 25.710938 7.753906 C 26.019531 7.753906 26.285156 7.980469 26.332031 8.28125 L 27.6875 16.878906 C 27.746094 17.261719 27.449219 17.605469 27.0625 17.605469 L 11.617188 17.605469 C 11.328125 17.605469 11.070312 17.40625 11.003906 17.121094 Z M 15.011719 33.941406 L 12.015625 21.351562 C 11.921875 20.960938 12.21875 20.578125 12.628906 20.578125 L 27.734375 20.578125 C 28.042969 20.578125 28.308594 20.804688 28.355469 21.109375 L 30.335938 33.699219 C 30.398438 34.082031 30.105469 34.425781 29.714844 34.425781 L 15.621094 34.425781 C 15.332031 34.425781 15.078125 34.226562 15.011719 33.941406 Z M 32 48.894531 L 19.527344 48.894531 C 18.964844 48.894531 18.476562 48.511719 18.34375 47.964844 L 16.015625 38.175781 C 15.921875 37.777344 16.222656 37.398438 16.628906 37.398438 L 30.382812 37.398438 C 30.691406 37.398438 30.957031 37.625 31.003906 37.929688 L 32.617188 48.171875 C 32.679688 48.554688 32.382812 48.898438 31.996094 48.898438 Z M 50.429688 48.265625 C 50.429688 48.617188 50.148438 48.894531 49.800781 48.894531 L 36.277344 48.894531 C 35.96875 48.894531 35.703125 48.671875 35.65625 48.367188 L 34.042969 38.128906 C 33.984375 37.746094 34.277344 37.398438 34.664062 37.398438 L 49.800781 37.398438 C 50.148438 37.398438 50.429688 37.683594 50.429688 38.03125 L 50.429688 48.269531 Z M 50.429688 33.796875 C 50.429688 34.144531 50.148438 34.425781 49.800781 34.425781 L 33.996094 34.425781 C 33.6875 34.425781 33.425781 34.203125 33.375 33.894531 L 31.394531 21.304688 C 31.332031 20.921875 31.628906 20.578125 32.015625 20.578125 L 49.800781 20.578125 C 50.148438 20.578125 50.429688 20.859375 50.429688 21.207031 Z M 70.019531 38.125 L 68.410156 48.363281 C 68.363281 48.667969 68.097656 48.894531 67.789062 48.894531 L 54.03125 48.894531 C 53.683594 48.894531 53.402344 48.613281 53.402344 48.265625 L 53.402344 38.027344 C 53.402344 37.679688 53.683594 37.394531 54.03125 37.394531 L 69.398438 37.394531 C 69.789062 37.394531 70.082031 37.738281 70.019531 38.125 Z M 70.070312 34.425781 L 54.03125 34.425781 C 53.683594 34.425781 53.402344 34.144531 53.402344 33.796875 L 53.402344 21.203125 C 53.402344 20.859375 53.683594 20.574219 54.03125 20.574219 L 72.046875 20.574219 C 72.4375 20.574219 72.730469 20.921875 72.671875 21.304688 L 70.6875 33.890625 C 70.640625 34.199219 70.378906 34.425781 70.066406 34.425781 Z M 88.558594 38.160156 L 86.367188 47.945312 C 86.242188 48.5 85.753906 48.894531 85.183594 48.894531 L 72.070312 48.894531 C 71.683594 48.894531 71.390625 48.550781 71.449219 48.167969 L 73.0625 37.925781 C 73.109375 37.621094 73.375 37.394531 73.683594 37.394531 L 87.941406 37.394531 C 88.347656 37.394531 88.648438 37.769531 88.558594 38.160156 Z M 92.320312 21.34375 L 89.503906 33.933594 C 89.4375 34.21875 89.183594 34.425781 88.890625 34.425781 L 74.351562 34.425781 C 73.964844 34.425781 73.667969 34.078125 73.730469 33.695312 L 75.710938 21.105469 C 75.757812 20.800781 76.023438 20.574219 76.332031 20.574219 L 91.707031 20.574219 C 92.113281 20.574219 92.40625 20.949219 92.320312 21.34375 Z M 95.03125 9.230469 L 93.269531 17.113281 C 93.203125 17.402344 92.949219 17.601562 92.65625 17.601562 L 77.003906 17.601562 C 76.617188 17.601562 76.320312 17.257812 76.378906 16.875 L 77.734375 8.28125 C 77.78125 7.976562 78.046875 7.75 78.355469 7.75 L 93.847656 7.75 C 94.625 7.75 95.203125 8.472656 95.035156 9.230469 Z M 95.03125 9.230469 " fill-opacity="1" fill-rule="nonzero"/></g></g></g></g><g mask="url(#8fa8b5e5c7)"><g transform="matrix(1, 0, 0, 1, 109, 33)"><g clip-path="url(#9a7b7255a4)"><g clip-path="url(#d711e61a36)"><path fill="#38b6ff" d="M 35.054688 2.839844 C 35.054688 4.207031 33.945312 5.316406 32.578125 5.316406 L 9.539062 5.316406 C 9.359375 5.316406 9.195312 5.433594 9.140625 5.605469 L 5.289062 17.097656 L 5.296875 17.0625 C 5.667969 15.402344 4.402344 13.824219 2.699219 13.824219 L 1.164062 13.824219 L 4.441406 4.03125 C 5.179688 1.835938 7.230469 0.367188 9.542969 0.367188 L 32.582031 0.367188 C 33.949219 0.367188 35.058594 1.472656 35.058594 2.84375 Z M 35.054688 2.839844 " fill-opacity="1" fill-rule="nonzero"/></g></g></g></g><path fill="#38b6ff" d="M 114.695312 50.230469 L 113.875 49.992188 L 113.882812 49.957031 C 114.027344 49.304688 113.867188 48.617188 113.441406 48.085938 C 113.015625 47.554688 112.378906 47.246094 111.699219 47.246094 L 109.566406 47.246094 L 113.035156 36.890625 C 113.832031 34.523438 116.042969 32.933594 118.539062 32.933594 L 141.578125 32.933594 C 143.179688 32.933594 144.484375 34.234375 144.484375 35.839844 C 144.484375 37.441406 143.179688 38.742188 141.578125 38.742188 L 118.539062 38.742188 Z M 110.757812 46.390625 L 111.699219 46.390625 C 112.640625 46.390625 113.519531 46.8125 114.109375 47.550781 C 114.261719 47.738281 114.386719 47.941406 114.488281 48.152344 L 117.734375 38.472656 C 117.84375 38.125 118.167969 37.886719 118.542969 37.886719 L 141.582031 37.886719 C 142.710938 37.886719 143.628906 36.96875 143.628906 35.839844 C 143.628906 34.710938 142.710938 33.789062 141.582031 33.789062 L 118.542969 33.789062 C 116.410156 33.789062 114.527344 35.148438 113.847656 37.167969 L 110.757812 46.394531 Z M 110.757812 46.390625 " fill-opacity="1" fill-rule="nonzero"/><g mask="url(#555d0abd62)"><g transform="matrix(1, 0, 0, 1, 19, 53)"><g clip-path="url(#d55545982d)"><g clip-path="url(#d7b260a150)"><g mask="url(#00d5600348)"><g transform="matrix(1, 0, 0, 1, -0.000000000000003553, -0.000000000000007105)"><g clip-path="url(#a02cb1d9a7)"><g clip-path="url(#51f9f88b52)"><path fill="#38b6ff" d="M 19.066406 10.605469 L 3.621094 10.605469 C 3.332031 10.605469 3.074219 10.40625 3.007812 10.125 L 1.136719 2.25 C 0.953125 1.484375 1.53125 0.753906 2.316406 0.753906 L 17.710938 0.753906 C 18.019531 0.753906 18.285156 0.980469 18.332031 1.28125 L 19.6875 9.878906 C 19.746094 10.261719 19.453125 10.605469 19.066406 10.605469 Z M 19.066406 10.605469 " fill-opacity="1" fill-rule="nonzero"/></g></g></g></g></g><path fill="#38b6ff" d="M 21.714844 27.429688 L 7.621094 27.429688 C 7.332031 27.429688 7.078125 27.226562 7.011719 26.945312 L 4.015625 14.355469 C 3.921875 13.960938 4.21875 13.578125 4.628906 13.578125 L 19.734375 13.578125 C 20.042969 13.578125 20.308594 13.804688 20.355469 14.113281 L 22.335938 26.699219 C 22.398438 27.082031 22.105469 27.429688 21.714844 27.429688 Z M 21.714844 27.429688 " fill-opacity="1" fill-rule="nonzero"/><g clip-path="url(#63a519cb09)"><g mask="url(#95b134daa6)"><g transform="matrix(1, 0, 0, 1, 7, 30)"><g clip-path="url(#5fa927e806)"><g clip-path="url(#24fc890d1d)"><path fill="#38b6ff" d="M 17 11.898438 L 4.527344 11.898438 C 3.964844 11.898438 3.476562 11.511719 3.34375 10.964844 L 1.015625 1.175781 C 0.921875 0.78125 1.222656 0.398438 1.628906 0.398438 L 15.382812 0.398438 C 15.691406 0.398438 15.957031 0.625 16.003906 0.929688 L 17.617188 11.171875 C 17.679688 11.554688 17.382812 11.898438 16.996094 11.898438 Z M 17 11.898438 " fill-opacity="1" fill-rule="nonzero"/></g></g></g></g></g><g clip-path="url(#ab9dadc0b0)"><path fill="#38b6ff" d="M 42.128906 10.511719 C 42.035156 10.570312 41.921875 10.605469 41.800781 10.605469 L 23.347656 10.605469 C 23.039062 10.605469 22.777344 10.382812 22.726562 10.078125 L 21.371094 1.480469 C 21.3125 1.101562 21.609375 0.757812 21.996094 0.757812 L 27.140625 0.757812 C 30.179688 6.117188 35.695312 9.886719 42.128906 10.511719 Z M 42.128906 10.511719 " fill-opacity="1" fill-rule="nonzero"/></g><g mask="url(#87bba08c18)"><g transform="matrix(1, 0, 0, 1, 23, 13)"><g clip-path="url(#840b6ac448)"><g clip-path="url(#2eb77b4f74)"><path fill="#38b6ff" d="M 19.429688 1.207031 L 19.429688 13.800781 C 19.429688 14.148438 19.148438 14.429688 18.800781 14.429688 L 2.996094 14.429688 C 2.6875 14.429688 2.425781 14.203125 2.375 13.894531 L 0.394531 1.308594 C 0.332031 0.925781 0.628906 0.578125 1.015625 0.578125 L 18.800781 0.578125 C 19.148438 0.578125 19.429688 0.863281 19.429688 1.207031 Z M 19.429688 1.207031 " fill-opacity="1" fill-rule="nonzero"/></g></g></g></g><path fill="#38b6ff" d="M 42.429688 31.03125 L 42.429688 41.269531 C 42.429688 41.617188 42.148438 41.898438 41.800781 41.898438 L 28.277344 41.898438 C 27.96875 41.898438 27.703125 41.671875 27.65625 41.367188 L 26.042969 31.128906 C 25.984375 30.746094 26.277344 30.402344 26.664062 30.402344 L 41.800781 30.402344 C 42.148438 30.402344 42.429688 30.683594 42.429688 31.03125 Z M 42.429688 31.03125 " fill-opacity="1" fill-rule="nonzero"/><path fill="#38b6ff" d="M 62.023438 31.128906 L 60.410156 41.367188 C 60.363281 41.671875 60.097656 41.894531 59.789062 41.894531 L 46.035156 41.894531 C 45.6875 41.894531 45.402344 41.617188 45.402344 41.265625 L 45.402344 31.027344 C 45.402344 30.679688 45.6875 30.398438 46.035156 30.398438 L 61.402344 30.398438 C 61.789062 30.398438 62.082031 30.742188 62.023438 31.125 Z M 62.023438 31.128906 " fill-opacity="1" fill-rule="nonzero"/><path fill="#38b6ff" d="M 64.671875 14.308594 L 62.691406 26.894531 C 62.640625 27.203125 62.378906 27.429688 62.070312 27.429688 L 46.03125 27.429688 C 45.683594 27.429688 45.402344 27.148438 45.402344 26.800781 L 45.402344 14.207031 C 45.402344 13.863281 45.683594 13.578125 46.03125 13.578125 L 64.046875 13.578125 C 64.4375 13.578125 64.730469 13.925781 64.671875 14.308594 Z M 64.671875 14.308594 " fill-opacity="1" fill-rule="nonzero"/><g clip-path="url(#40ead16588)"><path fill="#38b6ff" d="M 66.691406 1.480469 L 65.339844 10.078125 C 65.292969 10.378906 65.027344 10.605469 64.71875 10.605469 L 46.035156 10.605469 C 45.976562 10.605469 45.917969 10.597656 45.867188 10.582031 C 45.851562 10.578125 45.839844 10.574219 45.824219 10.570312 C 45.792969 10.558594 45.765625 10.546875 45.734375 10.53125 C 52.261719 9.964844 57.859375 6.171875 60.929688 0.753906 L 66.074219 0.753906 C 66.460938 0.753906 66.753906 1.097656 66.695312 1.480469 Z M 66.691406 1.480469 " fill-opacity="1" fill-rule="nonzero"/></g><g clip-path="url(#f3379dcad4)"><g mask="url(#f7f4399d45)"><g transform="matrix(1, 0, 0, 1, 63, 30)"><g clip-path="url(#b2515b341a)"><g clip-path="url(#0e8cffec82)"><path fill="#38b6ff" d="M 17.558594 1.164062 L 15.367188 10.949219 C 15.242188 11.503906 14.753906 11.898438 14.183594 11.898438 L 1.070312 11.898438 C 0.683594 11.898438 0.390625 11.554688 0.449219 11.171875 L 2.0625 0.929688 C 2.109375 0.625 2.375 0.398438 2.683594 0.398438 L 16.941406 0.398438 C 17.347656 0.398438 17.648438 0.773438 17.558594 1.164062 Z M 17.558594 1.164062 " fill-opacity="1" fill-rule="nonzero"/></g></g></g></g></g><path fill="#38b6ff" d="M 84.324219 14.347656 L 81.503906 26.9375 C 81.4375 27.226562 81.183594 27.429688 80.890625 27.429688 L 66.351562 27.429688 C 65.964844 27.429688 65.667969 27.082031 65.730469 26.699219 L 67.714844 14.113281 C 67.761719 13.804688 68.027344 13.578125 68.335938 13.578125 L 83.710938 13.578125 C 84.113281 13.578125 84.410156 13.953125 84.324219 14.347656 Z M 84.324219 14.347656 " fill-opacity="1" fill-rule="nonzero"/><g clip-path="url(#3075d1c046)"><path fill="#38b6ff" d="M 87.035156 2.234375 L 85.269531 10.117188 C 85.207031 10.40625 84.949219 10.605469 84.65625 10.605469 L 69.003906 10.605469 C 68.617188 10.605469 68.324219 10.265625 68.382812 9.882812 L 69.738281 1.285156 C 69.785156 0.980469 70.046875 0.757812 70.359375 0.757812 L 85.847656 0.757812 C 86.628906 0.757812 87.207031 1.476562 87.035156 2.234375 Z M 87.035156 2.234375 " fill-opacity="1" fill-rule="nonzero"/></g></g></g></g><path fill="#38b6ff" d="M 100.578125 102.261719 L 26.191406 102.261719 C 24.753906 102.261719 23.519531 101.285156 23.1875 99.886719 L 11.363281 50.195312 C 11.144531 49.269531 11.355469 48.3125 11.945312 47.566406 C 12.535156 46.820312 13.417969 46.390625 14.371094 46.390625 L 44.179688 46.390625 L 44.230469 46.761719 C 44.550781 49.160156 45.320312 51.441406 46.511719 53.542969 L 46.875 54.183594 L 40.996094 54.183594 C 40.914062 54.183594 40.863281 54.230469 40.839844 54.253906 C 40.816406 54.28125 40.78125 54.335938 40.796875 54.414062 L 42.148438 63.011719 C 42.164062 63.109375 42.25 63.179688 42.347656 63.179688 L 60.800781 63.179688 C 60.835938 63.179688 60.871094 63.167969 60.902344 63.152344 L 61.027344 63.074219 L 61.171875 63.085938 C 62.34375 63.203125 63.546875 63.207031 64.695312 63.105469 L 64.820312 63.09375 L 64.933594 63.152344 C 64.933594 63.152344 64.945312 63.160156 64.953125 63.164062 L 64.984375 63.171875 C 65 63.175781 65.015625 63.179688 65.03125 63.179688 L 83.71875 63.179688 C 83.816406 63.179688 83.902344 63.109375 83.917969 63.007812 L 85.269531 54.414062 C 85.28125 54.335938 85.246094 54.28125 85.226562 54.253906 C 85.203125 54.226562 85.152344 54.183594 85.070312 54.183594 L 79.191406 54.183594 L 79.554688 53.542969 C 80.75 51.441406 81.519531 49.160156 81.839844 46.761719 L 81.890625 46.390625 L 111.699219 46.390625 C 112.640625 46.390625 113.519531 46.8125 114.109375 47.550781 C 114.699219 48.285156 114.921875 49.234375 114.714844 50.152344 L 114.703125 50.199219 L 103.777344 99.019531 L 103.589844 99.84375 C 103.5625 99.980469 103.527344 100.101562 103.480469 100.21875 C 103.046875 101.4375 101.882812 102.257812 100.578125 102.257812 Z M 14.371094 47.246094 C 13.683594 47.246094 13.042969 47.558594 12.617188 48.097656 C 12.191406 48.636719 12.039062 49.328125 12.199219 49.996094 L 24.019531 99.6875 C 24.257812 100.699219 25.152344 101.40625 26.191406 101.40625 L 100.578125 101.40625 C 101.523438 101.40625 102.367188 100.8125 102.679688 99.925781 L 102.683594 99.910156 C 102.710938 99.839844 102.734375 99.757812 102.757812 99.664062 L 102.941406 98.835938 L 113.867188 50.003906 L 113.878906 49.957031 C 114.027344 49.304688 113.867188 48.617188 113.441406 48.085938 C 113.015625 47.554688 112.378906 47.246094 111.695312 47.246094 L 82.632812 47.246094 C 82.304688 49.378906 81.640625 51.417969 80.648438 53.328125 L 85.070312 53.328125 C 85.382812 53.328125 85.675781 53.464844 85.875 53.699219 C 86.078125 53.9375 86.164062 54.246094 86.113281 54.550781 L 84.761719 63.144531 C 84.679688 63.660156 84.242188 64.035156 83.71875 64.035156 L 65.03125 64.035156 C 64.9375 64.035156 64.84375 64.023438 64.757812 64 C 64.730469 63.992188 64.707031 63.984375 64.683594 63.976562 C 64.675781 63.972656 64.667969 63.972656 64.664062 63.96875 C 63.535156 64.0625 62.363281 64.058594 61.214844 63.953125 C 61.085938 64.007812 60.945312 64.039062 60.804688 64.039062 L 42.351562 64.039062 C 41.828125 64.039062 41.386719 63.664062 41.304688 63.148438 L 39.949219 54.550781 C 39.902344 54.242188 39.992188 53.933594 40.191406 53.699219 C 40.394531 53.464844 40.6875 53.328125 40.996094 53.328125 L 45.421875 53.328125 C 44.429688 51.421875 43.761719 49.378906 43.433594 47.25 L 14.371094 47.25 Z M 96.1875 95.324219 L 83.070312 95.324219 C 82.761719 95.324219 82.46875 95.191406 82.265625 94.957031 C 82.066406 94.722656 81.980469 94.410156 82.027344 94.105469 L 83.640625 83.863281 C 83.722656 83.355469 84.167969 82.972656 84.6875 82.972656 L 98.945312 82.972656 C 99.269531 82.972656 99.574219 83.117188 99.773438 83.371094 C 99.972656 83.625 100.046875 83.945312 99.976562 84.257812 L 97.789062 94.042969 C 97.621094 94.796875 96.960938 95.324219 96.1875 95.324219 Z M 84.6875 83.828125 C 84.585938 83.828125 84.503906 83.898438 84.488281 83.996094 L 82.875 94.238281 C 82.863281 94.316406 82.898438 94.371094 82.917969 94.398438 C 82.941406 94.425781 82.988281 94.46875 83.070312 94.46875 L 96.1875 94.46875 C 96.554688 94.46875 96.871094 94.21875 96.949219 93.855469 L 99.140625 84.070312 C 99.160156 83.988281 99.125 83.933594 99.105469 83.90625 C 99.082031 83.878906 99.03125 83.828125 98.945312 83.828125 Z M 78.789062 95.324219 L 65.035156 95.324219 C 64.449219 95.324219 63.976562 94.851562 63.976562 94.269531 L 63.976562 84.03125 C 63.976562 83.449219 64.449219 82.972656 65.035156 82.972656 L 80.402344 82.972656 C 80.710938 82.972656 81.007812 83.109375 81.207031 83.34375 C 81.40625 83.578125 81.496094 83.886719 81.445312 84.195312 L 79.835938 94.433594 C 79.753906 94.949219 79.316406 95.324219 78.789062 95.324219 Z M 65.035156 83.828125 C 64.925781 83.828125 64.832031 83.917969 64.832031 84.03125 L 64.832031 94.269531 C 64.832031 94.378906 64.921875 94.46875 65.035156 94.46875 L 78.789062 94.46875 C 78.886719 94.46875 78.972656 94.398438 78.984375 94.304688 L 80.597656 84.058594 C 80.609375 83.980469 80.574219 83.925781 80.554688 83.898438 C 80.53125 83.871094 80.484375 83.828125 80.398438 83.828125 L 65.03125 83.828125 Z M 60.804688 95.324219 L 47.28125 95.324219 C 46.753906 95.324219 46.316406 94.949219 46.238281 94.433594 L 44.621094 84.195312 C 44.574219 83.886719 44.664062 83.574219 44.863281 83.339844 C 45.066406 83.105469 45.359375 82.972656 45.667969 82.972656 L 60.804688 82.972656 C 61.386719 82.972656 61.859375 83.445312 61.859375 84.03125 L 61.859375 94.269531 C 61.859375 94.851562 61.386719 95.324219 60.804688 95.324219 Z M 45.667969 83.828125 C 45.585938 83.828125 45.535156 83.871094 45.515625 83.898438 C 45.492188 83.925781 45.453125 83.980469 45.46875 84.0625 L 47.082031 94.300781 C 47.097656 94.398438 47.183594 94.46875 47.277344 94.46875 L 60.800781 94.46875 C 60.914062 94.46875 61.003906 94.378906 61.003906 94.269531 L 61.003906 84.03125 C 61.003906 83.917969 60.914062 83.828125 60.800781 83.828125 L 45.664062 83.828125 Z M 43 95.324219 L 30.527344 95.324219 C 29.765625 95.324219 29.109375 94.808594 28.929688 94.066406 L 26.601562 84.277344 C 26.527344 83.957031 26.601562 83.628906 26.800781 83.375 C 27.003906 83.117188 27.304688 82.972656 27.632812 82.972656 L 41.386719 82.972656 C 41.902344 82.972656 42.351562 83.355469 42.429688 83.867188 L 44.042969 94.105469 C 44.09375 94.410156 44.003906 94.71875 43.804688 94.953125 C 43.601562 95.191406 43.308594 95.324219 43 95.324219 Z M 27.632812 83.828125 C 27.546875 83.828125 27.496094 83.878906 27.472656 83.90625 C 27.449219 83.933594 27.417969 83.992188 27.433594 84.078125 L 29.761719 93.867188 C 29.847656 94.222656 30.164062 94.46875 30.527344 94.46875 L 43 94.46875 C 43.078125 94.46875 43.128906 94.425781 43.152344 94.398438 C 43.175781 94.371094 43.207031 94.316406 43.195312 94.238281 L 41.582031 83.996094 C 41.566406 83.898438 41.480469 83.828125 41.382812 83.828125 L 27.628906 83.828125 Z M 99.890625 80.855469 L 85.351562 80.855469 C 85.042969 80.855469 84.75 80.71875 84.546875 80.484375 C 84.347656 80.246094 84.257812 79.9375 84.308594 79.628906 L 86.292969 67.042969 C 86.371094 66.535156 86.820312 66.148438 87.335938 66.148438 L 102.710938 66.148438 C 103.03125 66.148438 103.332031 66.292969 103.53125 66.542969 C 103.734375 66.792969 103.8125 67.121094 103.742188 67.4375 L 100.925781 80.027344 C 100.816406 80.515625 100.390625 80.855469 99.890625 80.855469 Z M 87.335938 67.007812 C 87.238281 67.007812 87.152344 67.078125 87.140625 67.175781 L 85.15625 79.765625 C 85.144531 79.84375 85.179688 79.902344 85.199219 79.925781 C 85.222656 79.953125 85.273438 80 85.351562 80 L 99.890625 80 C 99.988281 80 100.066406 79.933594 100.089844 79.839844 L 102.90625 67.253906 C 102.925781 67.171875 102.890625 67.109375 102.867188 67.082031 C 102.84375 67.054688 102.796875 67.007812 102.710938 67.007812 Z M 81.070312 80.855469 L 65.035156 80.855469 C 64.449219 80.855469 63.976562 80.382812 63.976562 79.796875 L 63.976562 67.207031 C 63.976562 66.625 64.449219 66.148438 65.035156 66.148438 L 83.050781 66.148438 C 83.359375 66.148438 83.65625 66.285156 83.859375 66.523438 C 84.058594 66.757812 84.144531 67.070312 84.097656 67.375 L 82.113281 79.960938 C 82.03125 80.480469 81.589844 80.855469 81.070312 80.855469 Z M 65.035156 67.007812 C 64.921875 67.007812 64.832031 67.097656 64.832031 67.207031 L 64.832031 79.796875 C 64.832031 79.910156 64.921875 80 65.035156 80 L 81.070312 80 C 81.171875 80 81.253906 79.925781 81.269531 79.828125 L 83.25 67.238281 C 83.265625 67.15625 83.226562 67.101562 83.207031 67.074219 C 83.183594 67.050781 83.132812 67.003906 83.050781 67.003906 L 65.035156 67.003906 Z M 60.804688 80.855469 L 45 80.855469 C 44.476562 80.855469 44.039062 80.480469 43.953125 79.964844 L 41.972656 67.371094 C 41.921875 67.066406 42.011719 66.753906 42.214844 66.519531 C 42.414062 66.285156 42.707031 66.148438 43.015625 66.148438 L 60.804688 66.148438 C 61.386719 66.148438 61.859375 66.625 61.859375 67.207031 L 61.859375 79.796875 C 61.859375 80.378906 61.386719 80.855469 60.804688 80.855469 Z M 43.015625 67.007812 C 42.933594 67.007812 42.886719 67.050781 42.863281 67.074219 C 42.839844 67.101562 42.804688 67.160156 42.816406 67.238281 L 44.800781 79.828125 C 44.816406 79.925781 44.902344 79.996094 45 79.996094 L 60.804688 79.996094 C 60.914062 79.996094 61.003906 79.90625 61.003906 79.796875 L 61.003906 67.207031 C 61.003906 67.09375 60.914062 67.003906 60.804688 67.003906 L 43.015625 67.003906 Z M 40.71875 80.855469 L 26.621094 80.855469 C 26.128906 80.855469 25.707031 80.519531 25.59375 80.039062 L 22.601562 67.453125 C 22.523438 67.140625 22.597656 66.808594 22.796875 66.554688 C 23 66.296875 23.300781 66.152344 23.628906 66.152344 L 38.734375 66.152344 C 39.261719 66.152344 39.699219 66.527344 39.777344 67.046875 L 41.761719 79.632812 C 41.808594 79.9375 41.722656 80.25 41.519531 80.484375 C 41.320312 80.722656 41.027344 80.855469 40.71875 80.855469 Z M 23.628906 67.007812 C 23.542969 67.007812 23.496094 67.054688 23.472656 67.082031 C 23.449219 67.113281 23.414062 67.171875 23.433594 67.25 L 26.429688 79.84375 C 26.449219 79.933594 26.53125 80 26.621094 80 L 40.71875 80 C 40.796875 80 40.847656 79.953125 40.871094 79.929688 C 40.890625 79.902344 40.929688 79.847656 40.914062 79.765625 L 38.933594 67.175781 C 38.917969 67.078125 38.832031 67.007812 38.734375 67.007812 Z M 103.65625 64.035156 L 88.003906 64.035156 C 87.695312 64.035156 87.402344 63.898438 87.199219 63.664062 C 87 63.429688 86.910156 63.121094 86.957031 62.816406 L 88.3125 54.214844 C 88.394531 53.699219 88.832031 53.324219 89.359375 53.324219 L 104.847656 53.324219 C 105.351562 53.324219 105.820312 53.550781 106.132812 53.941406 C 106.445312 54.332031 106.558594 54.835938 106.449219 55.324219 L 104.683594 63.207031 C 104.578125 63.691406 104.152344 64.03125 103.652344 64.03125 Z M 89.359375 54.183594 C 89.257812 54.183594 89.175781 54.253906 89.160156 54.347656 L 87.804688 62.949219 C 87.792969 63.023438 87.828125 63.082031 87.851562 63.109375 C 87.871094 63.132812 87.921875 63.179688 88.003906 63.179688 L 103.65625 63.179688 C 103.75 63.179688 103.832031 63.113281 103.851562 63.023438 L 105.613281 55.140625 C 105.667969 54.90625 105.613281 54.664062 105.460938 54.480469 C 105.3125 54.292969 105.085938 54.183594 104.84375 54.183594 L 89.355469 54.183594 Z M 38.066406 64.035156 L 22.621094 64.035156 C 22.128906 64.035156 21.703125 63.699219 21.589844 63.222656 L 19.71875 55.347656 C 19.601562 54.855469 19.714844 54.347656 20.027344 53.949219 C 20.339844 53.554688 20.808594 53.324219 21.316406 53.324219 L 36.714844 53.324219 C 37.238281 53.324219 37.679688 53.699219 37.757812 54.21875 L 39.113281 62.8125 C 39.160156 63.121094 39.070312 63.429688 38.867188 63.664062 C 38.667969 63.898438 38.375 64.03125 38.066406 64.03125 Z M 21.316406 54.183594 C 21.074219 54.183594 20.847656 54.292969 20.699219 54.480469 C 20.550781 54.667969 20.496094 54.914062 20.554688 55.148438 L 22.425781 63.023438 C 22.445312 63.113281 22.527344 63.175781 22.621094 63.175781 L 38.066406 63.175781 C 38.148438 63.175781 38.199219 63.132812 38.21875 63.105469 C 38.242188 63.082031 38.277344 63.023438 38.265625 62.945312 L 36.910156 54.351562 C 36.894531 54.253906 36.808594 54.183594 36.710938 54.183594 Z M 21.316406 54.183594 " fill-opacity="1" fill-rule="nonzero"/><path fill="#38b6ff" d="M 38.066406 64.035156 L 22.621094 64.035156 C 22.128906 64.035156 21.703125 63.699219 21.589844 63.222656 L 19.71875 55.347656 C 19.601562 54.855469 19.714844 54.347656 20.027344 53.953125 C 20.339844 53.554688 20.808594 53.324219 21.316406 53.324219 L 36.714844 53.324219 C 37.238281 53.324219 37.679688 53.703125 37.757812 54.21875 L 39.113281 62.8125 C 39.160156 63.121094 39.070312 63.429688 38.867188 63.664062 C 38.667969 63.898438 38.375 64.035156 38.066406 64.035156 Z M 21.316406 54.183594 C 21.074219 54.183594 20.847656 54.292969 20.699219 54.484375 C 20.550781 54.671875 20.496094 54.914062 20.554688 55.148438 L 22.425781 63.023438 C 22.445312 63.113281 22.527344 63.179688 22.621094 63.179688 L 38.066406 63.179688 C 38.148438 63.179688 38.199219 63.132812 38.21875 63.109375 C 38.242188 63.082031 38.277344 63.027344 38.265625 62.945312 L 36.910156 54.351562 C 36.894531 54.253906 36.808594 54.183594 36.714844 54.183594 Z M 21.316406 54.183594 " fill-opacity="1" fill-rule="nonzero"/><path fill="#38b6ff" d="M 40.714844 80.855469 L 26.621094 80.855469 C 26.128906 80.855469 25.707031 80.523438 25.59375 80.042969 L 22.597656 67.453125 C 22.523438 67.140625 22.59375 66.8125 22.796875 66.554688 C 22.996094 66.300781 23.300781 66.152344 23.628906 66.152344 L 38.734375 66.152344 C 39.257812 66.152344 39.699219 66.527344 39.777344 67.046875 L 41.761719 79.636719 C 41.808594 79.941406 41.71875 80.25 41.519531 80.488281 C 41.316406 80.722656 41.023438 80.855469 40.714844 80.855469 Z M 23.628906 67.007812 C 23.542969 67.007812 23.492188 67.054688 23.46875 67.085938 C 23.445312 67.113281 23.414062 67.171875 23.433594 67.253906 L 26.425781 79.84375 C 26.449219 79.933594 26.53125 80 26.621094 80 L 40.714844 80 C 40.796875 80 40.847656 79.953125 40.867188 79.929688 C 40.890625 79.902344 40.925781 79.847656 40.914062 79.765625 L 38.929688 67.175781 C 38.917969 67.078125 38.832031 67.007812 38.734375 67.007812 Z M 23.628906 67.007812 " fill-opacity="1" fill-rule="nonzero"/><path fill="#38b6ff" d="M 43 95.324219 L 30.527344 95.324219 C 29.765625 95.324219 29.105469 94.808594 28.929688 94.066406 L 26.601562 84.277344 C 26.527344 83.957031 26.597656 83.628906 26.800781 83.375 C 27.003906 83.117188 27.304688 82.972656 27.628906 82.972656 L 41.382812 82.972656 C 41.898438 82.972656 42.347656 83.355469 42.425781 83.867188 L 44.042969 94.105469 C 44.089844 94.410156 44.003906 94.71875 43.800781 94.953125 C 43.601562 95.191406 43.308594 95.324219 43 95.324219 Z M 27.628906 83.828125 C 27.546875 83.828125 27.496094 83.878906 27.472656 83.90625 C 27.449219 83.933594 27.414062 83.992188 27.433594 84.078125 L 29.761719 93.867188 C 29.84375 94.222656 30.160156 94.46875 30.527344 94.46875 L 42.996094 94.46875 C 43.078125 94.46875 43.128906 94.425781 43.148438 94.398438 C 43.171875 94.371094 43.207031 94.316406 43.195312 94.238281 L 41.578125 83.996094 C 41.5625 83.898438 41.480469 83.828125 41.378906 83.828125 Z M 27.628906 83.828125 " fill-opacity="1" fill-rule="nonzero"/><path fill="#38b6ff" d="M 60.804688 64.035156 L 42.351562 64.035156 C 41.828125 64.035156 41.386719 63.660156 41.304688 63.144531 L 39.949219 54.546875 C 39.902344 54.238281 39.992188 53.929688 40.191406 53.695312 C 40.394531 53.460938 40.6875 53.324219 40.996094 53.324219 L 46.390625 53.324219 L 46.515625 53.542969 C 49.5625 58.921875 55.042969 62.488281 61.171875 63.085938 L 62.417969 63.207031 L 61.359375 63.875 C 61.195312 63.980469 61 64.035156 60.804688 64.035156 Z M 40.996094 54.183594 C 40.914062 54.183594 40.863281 54.230469 40.839844 54.253906 C 40.816406 54.28125 40.78125 54.335938 40.796875 54.414062 L 42.148438 63.011719 C 42.164062 63.109375 42.25 63.179688 42.347656 63.179688 L 57.257812 63.179688 C 52.523438 61.734375 48.4375 58.542969 45.890625 54.183594 Z M 40.996094 54.183594 " fill-opacity="1" fill-rule="nonzero"/><path fill="#38b6ff" d="M 60.804688 80.855469 L 45 80.855469 C 44.476562 80.855469 44.039062 80.480469 43.953125 79.964844 L 41.972656 67.371094 C 41.921875 67.066406 42.011719 66.757812 42.214844 66.519531 C 42.414062 66.285156 42.707031 66.152344 43.015625 66.152344 L 60.804688 66.152344 C 61.386719 66.152344 61.859375 66.625 61.859375 67.207031 L 61.859375 79.800781 C 61.859375 80.382812 61.386719 80.855469 60.804688 80.855469 Z M 43.015625 67.007812 C 42.933594 67.007812 42.886719 67.050781 42.863281 67.078125 C 42.839844 67.105469 42.804688 67.160156 42.816406 67.238281 L 44.800781 79.828125 C 44.816406 79.925781 44.902344 80 45 80 L 60.804688 80 C 60.914062 80 61.003906 79.910156 61.003906 79.796875 L 61.003906 67.207031 C 61.003906 67.097656 60.914062 67.007812 60.804688 67.007812 Z M 43.015625 67.007812 " fill-opacity="1" fill-rule="nonzero"/><path fill="#38b6ff" d="M 60.804688 95.324219 L 47.28125 95.324219 C 46.753906 95.324219 46.316406 94.949219 46.238281 94.433594 L 44.621094 84.195312 C 44.574219 83.886719 44.664062 83.574219 44.863281 83.339844 C 45.066406 83.105469 45.359375 82.972656 45.667969 82.972656 L 60.804688 82.972656 C 61.386719 82.972656 61.859375 83.445312 61.859375 84.03125 L 61.859375 94.269531 C 61.859375 94.851562 61.386719 95.324219 60.804688 95.324219 Z M 45.667969 83.828125 C 45.585938 83.828125 45.535156 83.871094 45.515625 83.898438 C 45.492188 83.925781 45.453125 83.980469 45.46875 84.0625 L 47.082031 94.300781 C 47.097656 94.398438 47.183594 94.46875 47.28125 94.46875 L 60.804688 94.46875 C 60.914062 94.46875 61.003906 94.378906 61.003906 94.269531 L 61.003906 84.03125 C 61.003906 83.917969 60.914062 83.828125 60.804688 83.828125 Z M 45.667969 83.828125 " fill-opacity="1" fill-rule="nonzero"/><path fill="#38b6ff" d="M 78.789062 95.324219 L 65.035156 95.324219 C 64.449219 95.324219 63.976562 94.851562 63.976562 94.269531 L 63.976562 84.03125 C 63.976562 83.449219 64.449219 82.972656 65.035156 82.972656 L 80.402344 82.972656 C 80.710938 82.972656 81.007812 83.109375 81.207031 83.34375 C 81.40625 83.578125 81.496094 83.886719 81.445312 84.195312 L 79.835938 94.433594 C 79.753906 94.949219 79.316406 95.324219 78.789062 95.324219 Z M 65.035156 83.828125 C 64.925781 83.828125 64.832031 83.917969 64.832031 84.03125 L 64.832031 94.269531 C 64.832031 94.378906 64.921875 94.46875 65.035156 94.46875 L 78.789062 94.46875 C 78.886719 94.46875 78.972656 94.398438 78.984375 94.304688 L 80.597656 84.058594 C 80.609375 83.980469 80.574219 83.925781 80.554688 83.898438 C 80.53125 83.871094 80.484375 83.828125 80.398438 83.828125 L 65.03125 83.828125 Z M 65.035156 83.828125 " fill-opacity="1" fill-rule="nonzero"/><path fill="#38b6ff" d="M 81.070312 80.855469 L 65.035156 80.855469 C 64.449219 80.855469 63.976562 80.382812 63.976562 79.800781 L 63.976562 67.207031 C 63.976562 66.625 64.449219 66.152344 65.035156 66.152344 L 83.050781 66.152344 C 83.359375 66.152344 83.65625 66.285156 83.859375 66.523438 C 84.058594 66.757812 84.144531 67.070312 84.097656 67.375 L 82.113281 79.964844 C 82.03125 80.480469 81.589844 80.855469 81.070312 80.855469 Z M 65.035156 67.007812 C 64.921875 67.007812 64.832031 67.097656 64.832031 67.207031 L 64.832031 79.800781 C 64.832031 79.910156 64.921875 80 65.035156 80 L 81.070312 80 C 81.171875 80 81.253906 79.929688 81.269531 79.828125 L 83.25 67.238281 C 83.265625 67.160156 83.226562 67.105469 83.207031 67.078125 C 83.183594 67.050781 83.132812 67.007812 83.050781 67.007812 Z M 65.035156 67.007812 " fill-opacity="1" fill-rule="nonzero"/><path fill="#38b6ff" d="M 83.71875 64.035156 L 65.035156 64.035156 C 64.941406 64.035156 64.847656 64.023438 64.757812 63.996094 C 64.734375 63.992188 64.703125 63.984375 64.667969 63.96875 C 64.625 63.953125 64.578125 63.933594 64.53125 63.910156 L 63.246094 63.230469 L 64.695312 63.105469 C 70.910156 62.566406 76.46875 58.992188 79.554688 53.542969 L 79.675781 53.324219 L 85.070312 53.324219 C 85.382812 53.324219 85.675781 53.460938 85.875 53.699219 C 86.078125 53.933594 86.164062 54.242188 86.113281 54.546875 L 84.761719 63.144531 C 84.679688 63.660156 84.242188 64.035156 83.71875 64.035156 Z M 68.8125 63.179688 L 83.71875 63.179688 C 83.816406 63.179688 83.902344 63.109375 83.917969 63.007812 L 85.269531 54.410156 C 85.28125 54.335938 85.246094 54.28125 85.226562 54.253906 C 85.203125 54.226562 85.152344 54.183594 85.070312 54.183594 L 80.175781 54.183594 C 77.628906 58.550781 73.546875 61.738281 68.8125 63.175781 Z M 68.8125 63.179688 " fill-opacity="1" fill-rule="nonzero"/><path fill="#38b6ff" d="M 96.1875 95.324219 L 83.070312 95.324219 C 82.761719 95.324219 82.46875 95.191406 82.265625 94.957031 C 82.066406 94.722656 81.980469 94.410156 82.027344 94.105469 L 83.640625 83.863281 C 83.722656 83.355469 84.167969 82.972656 84.6875 82.972656 L 98.945312 82.972656 C 99.269531 82.972656 99.574219 83.117188 99.773438 83.371094 C 99.972656 83.621094 100.046875 83.945312 99.976562 84.257812 L 97.789062 94.042969 C 97.621094 94.796875 96.960938 95.324219 96.1875 95.324219 Z M 84.6875 83.828125 C 84.585938 83.828125 84.503906 83.898438 84.488281 83.996094 L 82.875 94.238281 C 82.863281 94.316406 82.898438 94.371094 82.917969 94.398438 C 82.941406 94.425781 82.988281 94.46875 83.070312 94.46875 L 96.1875 94.46875 C 96.554688 94.46875 96.871094 94.21875 96.949219 93.855469 L 99.140625 84.070312 C 99.160156 83.988281 99.125 83.933594 99.105469 83.90625 C 99.082031 83.878906 99.03125 83.828125 98.945312 83.828125 Z M 84.6875 83.828125 " fill-opacity="1" fill-rule="nonzero"/><path fill="#38b6ff" d="M 99.890625 80.855469 L 85.351562 80.855469 C 85.042969 80.855469 84.746094 80.722656 84.546875 80.484375 C 84.34375 80.25 84.257812 79.9375 84.308594 79.632812 L 86.289062 67.042969 C 86.371094 66.535156 86.816406 66.152344 87.335938 66.152344 L 102.710938 66.152344 C 103.03125 66.152344 103.328125 66.292969 103.53125 66.542969 C 103.734375 66.792969 103.808594 67.121094 103.742188 67.4375 L 103.742188 67.441406 L 100.921875 80.027344 C 100.8125 80.515625 100.386719 80.855469 99.890625 80.855469 Z M 87.335938 67.007812 C 87.234375 67.007812 87.152344 67.082031 87.136719 67.175781 L 85.15625 79.765625 C 85.140625 79.847656 85.175781 79.902344 85.199219 79.929688 C 85.222656 79.957031 85.269531 80 85.351562 80 L 99.890625 80 C 99.984375 80 100.066406 79.933594 100.085938 79.84375 L 102.90625 67.257812 C 102.921875 67.171875 102.886719 67.109375 102.863281 67.082031 C 102.84375 67.054688 102.792969 67.007812 102.710938 67.007812 Z M 87.335938 67.007812 " fill-opacity="1" fill-rule="nonzero"/><path fill="#38b6ff" d="M 103.65625 64.035156 L 88.003906 64.035156 C 87.691406 64.035156 87.398438 63.902344 87.199219 63.667969 C 86.996094 63.433594 86.910156 63.121094 86.957031 62.816406 L 88.3125 54.21875 C 88.394531 53.703125 88.832031 53.324219 89.355469 53.324219 L 104.84375 53.324219 C 105.347656 53.324219 105.816406 53.550781 106.128906 53.941406 C 106.441406 54.335938 106.558594 54.839844 106.449219 55.324219 L 104.683594 63.207031 C 104.578125 63.695312 104.152344 64.035156 103.652344 64.035156 Z M 89.355469 54.183594 C 89.257812 54.183594 89.171875 54.253906 89.160156 54.351562 L 87.804688 62.949219 C 87.792969 63.027344 87.828125 63.082031 87.847656 63.109375 C 87.871094 63.136719 87.921875 63.179688 88 63.179688 L 103.652344 63.179688 C 103.75 63.179688 103.828125 63.117188 103.847656 63.023438 L 105.613281 55.140625 C 105.667969 54.90625 105.609375 54.667969 105.460938 54.480469 C 105.3125 54.292969 105.085938 54.1875 104.84375 54.1875 L 89.355469 54.1875 Z M 89.355469 54.183594 " fill-opacity="1" fill-rule="nonzero"/><g clip-path="url(#7ed2ec4af4)"><path fill="#38b6ff" d="M 36.109375 116.847656 C 31.730469 116.847656 28.179688 120.398438 28.179688 124.78125 C 28.179688 129.164062 31.730469 132.710938 36.109375 132.710938 C 40.488281 132.710938 44.042969 129.160156 44.042969 124.78125 C 44.042969 120.402344 40.492188 116.847656 36.109375 116.847656 Z M 36.109375 128.441406 C 34.089844 128.441406 32.449219 126.804688 32.449219 124.78125 C 32.449219 122.757812 34.089844 121.121094 36.109375 121.121094 C 38.132812 121.121094 39.773438 122.757812 39.773438 124.78125 C 39.773438 126.804688 38.132812 128.441406 36.109375 128.441406 Z M 36.109375 128.441406 " fill-opacity="1" fill-rule="nonzero"/></g><g mask="url(#b7f914bda5)"><g transform="matrix(1, 0, 0, 1, 32, 120)"><g clip-path="url(#7820ebe493)"><g clip-path="url(#fe8cbc75d0)"><path fill="#38b6ff" d="M 7.773438 4.78125 C 7.773438 6.800781 6.132812 8.441406 4.109375 8.441406 C 2.085938 8.441406 0.449219 6.804688 0.449219 4.78125 C 0.449219 2.757812 2.089844 1.121094 4.109375 1.121094 C 6.132812 1.121094 7.773438 2.757812 7.773438 4.78125 Z M 7.773438 4.78125 " fill-opacity="1" fill-rule="nonzero"/></g></g></g></g><g clip-path="url(#eb41131932)"><path fill="#38b6ff" d="M 87.957031 116.847656 C 83.578125 116.847656 80.027344 120.398438 80.027344 124.78125 C 80.027344 129.164062 83.578125 132.710938 87.957031 132.710938 C 92.335938 132.710938 95.890625 129.160156 95.890625 124.78125 C 95.890625 120.402344 92.339844 116.847656 87.957031 116.847656 Z M 87.957031 128.441406 C 85.9375 128.441406 84.296875 126.804688 84.296875 124.78125 C 84.296875 122.757812 85.933594 121.121094 87.957031 121.121094 C 89.980469 121.121094 91.621094 122.757812 91.621094 124.78125 C 91.621094 126.804688 89.980469 128.441406 87.957031 128.441406 Z M 87.957031 128.441406 " fill-opacity="1" fill-rule="nonzero"/></g><g mask="url(#46b86ba487)"><g transform="matrix(1, 0, 0, 1, 84, 120)"><g clip-path="url(#c6fd20d09b)"><g clip-path="url(#902968b66b)"><path fill="#38b6ff" d="M 7.621094 4.78125 C 7.621094 6.800781 5.980469 8.441406 3.957031 8.441406 C 1.933594 8.441406 0.296875 6.804688 0.296875 4.78125 C 0.296875 2.757812 1.9375 1.121094 3.957031 1.121094 C 5.980469 1.121094 7.621094 2.757812 7.621094 4.78125 Z M 7.621094 4.78125 " fill-opacity="1" fill-rule="nonzero"/></g></g></g></g><g clip-path="url(#cd2ebe1256)"><path fill="#38b6ff" d="M 145.019531 30.945312 L 126.253906 30.945312 C 125.496094 30.945312 124.886719 31.558594 124.886719 32.3125 L 124.886719 38.496094 C 124.886719 39.25 125.496094 39.863281 126.253906 39.863281 L 145.019531 39.863281 C 145.773438 39.863281 146.386719 39.25 146.386719 38.496094 L 146.386719 32.3125 C 146.386719 31.558594 145.773438 30.945312 145.019531 30.945312 Z M 145.019531 30.945312 " fill-opacity="1" fill-rule="nonzero"/></g><g mask="url(#21328afc90)"><g transform="matrix(1, 0, 0, 1, 43, 24)"><g clip-path="url(#16b35ebd7d)"><g clip-path="url(#4d5040606c)"><path fill="#38b6ff" d="M 20.035156 0.792969 C 9.316406 0.792969 0.628906 9.480469 0.628906 20.199219 C 0.628906 21.085938 0.6875 21.960938 0.804688 22.816406 C 1.140625 25.3125 1.953125 27.65625 3.140625 29.753906 C 6.179688 35.113281 11.695312 38.882812 18.128906 39.511719 C 18.757812 39.570312 19.390625 39.605469 20.035156 39.605469 C 20.605469 39.605469 21.175781 39.578125 21.734375 39.527344 C 28.257812 38.964844 33.859375 35.171875 36.929688 29.753906 C 38.117188 27.652344 38.929688 25.3125 39.265625 22.816406 C 39.378906 21.960938 39.441406 21.085938 39.441406 20.199219 C 39.441406 9.480469 30.75 0.792969 20.035156 0.792969 Z M 10.332031 14.070312 C 10.332031 12.394531 11.691406 11.035156 13.363281 11.035156 C 15.039062 11.035156 16.398438 12.394531 16.398438 14.070312 C 16.398438 15.742188 15.039062 17.101562 13.363281 17.101562 C 11.6875 17.101562 10.332031 15.742188 10.332031 14.070312 Z M 26.984375 28.398438 C 26.890625 28.425781 26.796875 28.4375 26.703125 28.4375 C 26.238281 28.4375 25.816406 28.128906 25.6875 27.660156 C 25.65625 27.550781 24.738281 24.691406 20.164062 24.691406 C 15.585938 24.691406 14.40625 27.613281 14.359375 27.734375 C 14.160156 28.277344 13.558594 28.5625 13.011719 28.371094 C 12.46875 28.175781 12.175781 27.582031 12.367188 27.035156 C 12.421875 26.878906 13.5625 23.722656 17.78125 22.820312 C 18.484375 22.667969 19.277344 22.578125 20.164062 22.578125 C 21.050781 22.578125 21.84375 22.667969 22.542969 22.820312 C 26.742188 23.734375 27.679688 26.941406 27.726562 27.097656 C 27.878906 27.660156 27.550781 28.242188 26.988281 28.398438 Z M 26.707031 17.101562 C 25.03125 17.101562 23.671875 15.742188 23.671875 14.070312 C 23.671875 12.394531 25.03125 11.035156 26.707031 11.035156 C 28.378906 11.035156 29.738281 12.394531 29.738281 14.070312 C 29.738281 15.742188 28.378906 17.101562 26.707031 17.101562 Z M 26.707031 17.101562 " fill-opacity="1" fill-rule="nonzero"/></g></g></g></g><path fill="#38b6ff" d="M 63.035156 64.035156 C 62.382812 64.035156 61.726562 64 61.085938 63.9375 C 54.683594 63.316406 48.953125 59.589844 45.769531 53.96875 C 44.523438 51.769531 43.71875 49.382812 43.382812 46.875 C 43.261719 45.996094 43.199219 45.09375 43.199219 44.199219 C 43.199219 33.265625 52.097656 24.367188 63.035156 24.367188 C 73.972656 24.367188 82.871094 33.265625 82.871094 44.199219 C 82.871094 45.082031 82.808594 45.984375 82.691406 46.875 C 82.351562 49.386719 81.546875 51.769531 80.300781 53.96875 C 77.074219 59.660156 71.269531 63.398438 64.769531 63.957031 C 64.214844 64.007812 63.628906 64.035156 63.035156 64.035156 Z M 63.035156 25.222656 C 52.570312 25.222656 44.058594 33.738281 44.058594 44.199219 C 44.058594 45.054688 44.113281 45.917969 44.230469 46.761719 C 44.554688 49.160156 45.320312 51.441406 46.511719 53.542969 C 49.5625 58.921875 55.042969 62.488281 61.171875 63.085938 C 62.339844 63.203125 63.578125 63.207031 64.695312 63.105469 C 70.914062 62.566406 76.46875 58.992188 79.554688 53.542969 C 80.746094 51.441406 81.515625 49.160156 81.839844 46.761719 C 81.953125 45.90625 82.011719 45.042969 82.011719 44.199219 C 82.011719 33.738281 73.496094 25.222656 63.035156 25.222656 Z M 63.035156 25.222656 " fill-opacity="1" fill-rule="nonzero"/><path fill="#38b6ff" d="M 69.984375 52.398438 C 69.890625 52.425781 69.796875 52.4375 69.703125 52.4375 C 69.238281 52.4375 68.816406 52.128906 68.6875 51.660156 C 68.65625 51.550781 67.738281 48.691406 63.164062 48.691406 C 58.585938 48.691406 57.40625 51.613281 57.359375 51.734375 C 57.160156 52.277344 56.558594 52.5625 56.011719 52.371094 C 55.46875 52.175781 55.175781 51.582031 55.367188 51.035156 C 55.421875 50.878906 56.5625 47.722656 60.78125 46.820312 C 61.484375 46.667969 62.277344 46.578125 63.164062 46.578125 C 64.050781 46.578125 64.84375 46.667969 65.542969 46.820312 C 69.742188 47.734375 70.679688 50.941406 70.726562 51.097656 C 70.878906 51.660156 70.550781 52.242188 69.988281 52.398438 Z M 69.984375 52.398438 " fill-opacity="1" fill-rule="nonzero"/><path fill="#38b6ff" d="M 72.738281 38.070312 C 72.738281 39.742188 71.378906 41.101562 69.707031 41.101562 C 68.03125 41.101562 66.671875 39.742188 66.671875 38.070312 C 66.671875 36.394531 68.03125 35.035156 69.707031 35.035156 C 71.378906 35.035156 72.738281 36.394531 72.738281 38.070312 Z M 72.738281 38.070312 " fill-opacity="1" fill-rule="nonzero"/><path fill="#38b6ff" d="M 59.398438 38.070312 C 59.398438 39.742188 58.039062 41.101562 56.363281 41.101562 C 54.6875 41.101562 53.332031 39.742188 53.332031 38.070312 C 53.332031 36.394531 54.691406 35.035156 56.363281 35.035156 C 58.039062 35.035156 59.398438 36.394531 59.398438 38.070312 Z M 59.398438 38.070312 " fill-opacity="1" fill-rule="nonzero"/><path fill="#38b6ff" d="M 50.746094 108.128906 L 9.253906 108.128906 C 9.019531 108.128906 8.828125 107.9375 8.828125 107.699219 C 8.828125 107.464844 9.019531 107.273438 9.253906 107.273438 L 50.746094 107.273438 C 50.984375 107.273438 51.175781 107.464844 51.175781 107.699219 C 51.175781 107.9375 50.984375 108.128906 50.746094 108.128906 Z M 50.746094 108.128906 " fill-opacity="1" fill-rule="nonzero"/><path fill="#38b6ff" d="M 56.367188 120.019531 L 46.6875 120.019531 C 46.449219 120.019531 46.257812 119.828125 46.257812 119.589844 C 46.257812 119.351562 46.449219 119.160156 46.6875 119.160156 L 56.367188 119.160156 C 56.601562 119.160156 56.792969 119.351562 56.792969 119.589844 C 56.792969 119.828125 56.601562 120.019531 56.367188 120.019531 Z M 56.367188 120.019531 " fill-opacity="1" fill-rule="nonzero"/><path fill="#38b6ff" d="M 53.234375 124.324219 L 48.484375 124.324219 C 48.246094 124.324219 48.054688 124.132812 48.054688 123.894531 C 48.054688 123.660156 48.246094 123.46875 48.484375 123.46875 L 53.234375 123.46875 C 53.472656 123.46875 53.664062 123.660156 53.664062 123.894531 C 53.664062 124.132812 53.472656 124.324219 53.234375 124.324219 Z M 53.234375 124.324219 " fill-opacity="1" fill-rule="nonzero"/><path fill="#38b6ff" d="M 124.886719 109.761719 L 104.886719 109.761719 C 104.652344 109.761719 104.460938 109.570312 104.460938 109.335938 C 104.460938 109.097656 104.652344 108.90625 104.886719 108.90625 L 124.886719 108.90625 C 125.125 108.90625 125.316406 109.097656 125.316406 109.335938 C 125.316406 109.570312 125.125 109.761719 124.886719 109.761719 Z M 124.886719 109.761719 " fill-opacity="1" fill-rule="nonzero"/><path fill="#38b6ff" d="M 113.09375 114.453125 L 103.988281 114.453125 C 103.753906 114.453125 103.5625 114.261719 103.5625 114.023438 C 103.5625 113.785156 103.753906 113.59375 103.988281 113.59375 L 113.09375 113.59375 C 113.328125 113.59375 113.519531 113.785156 113.519531 114.023438 C 113.519531 114.261719 113.328125 114.453125 113.09375 114.453125 Z M 113.09375 114.453125 " fill-opacity="1" fill-rule="nonzero"/><path fill="#38b6ff" d="M 121.554688 75.351562 L 91.007812 75.351562 C 90.769531 75.351562 90.582031 75.160156 90.582031 74.925781 C 90.582031 74.6875 90.769531 74.496094 91.007812 74.496094 L 121.554688 74.496094 C 121.789062 74.496094 121.980469 74.6875 121.980469 74.925781 C 121.980469 75.160156 121.789062 75.351562 121.554688 75.351562 Z M 121.554688 75.351562 " fill-opacity="1" fill-rule="nonzero"/><path fill="#38b6ff" d="M 94.503906 71.222656 L 78.480469 71.222656 C 78.242188 71.222656 78.050781 71.03125 78.050781 70.792969 C 78.050781 70.554688 78.242188 70.363281 78.480469 70.363281 L 94.503906 70.363281 C 94.742188 70.363281 94.933594 70.554688 94.933594 70.792969 C 94.933594 71.03125 94.742188 71.222656 94.503906 71.222656 Z M 94.503906 71.222656 " fill-opacity="1" fill-rule="nonzero"/><g clip-path="url(#537b2fecee)"><g mask="url(#134edbc70b)"><g transform="matrix(1, 0, 0, 1, 3, 17)"><g clip-path="url(#0310cc5cf9)"><path fill="#38b6ff" d="M 121.964844 21.796875 L 115.589844 21.796875 L 115.070312 23.339844 L 121.277344 23.339844 C 122.417969 23.339844 123.519531 23.171875 124.5625 22.863281 L 123.433594 22.863281 C 122.746094 22.863281 122.164062 22.417969 121.964844 21.796875 Z M 121.964844 21.796875 " fill-opacity="1" fill-rule="nonzero"/><g clip-path="url(#62addc1ef9)"><path fill="#38b6ff" d="M 12.132812 69.453125 L 16.933594 69.453125 L 11.453125 46.417969 C 5.402344 46.773438 0.605469 51.785156 0.605469 57.925781 C 0.605469 61.109375 1.894531 63.992188 3.980469 66.074219 C 6.070312 68.164062 8.949219 69.453125 12.132812 69.453125 Z M 12.132812 69.453125 " fill-opacity="1" fill-rule="nonzero"/></g><g clip-path="url(#bf0435e397)"><path fill="#38b6ff" d="M 25.179688 107.78125 C 25.179688 104.363281 27.34375 101.445312 30.378906 100.332031 L 22.660156 100.332031 C 20.960938 100.332031 19.578125 98.949219 19.578125 97.246094 C 19.578125 95.542969 20.960938 94.160156 22.660156 94.160156 L 90.792969 94.160156 C 91.117188 94.160156 91.402344 93.941406 91.484375 93.625 L 93.628906 85.3125 L 60.574219 85.3125 C 58.863281 89.53125 54.726562 92.507812 49.894531 92.507812 L 12.132812 92.507812 C 5.769531 92.507812 0.605469 97.667969 0.605469 104.035156 C 0.605469 107.21875 1.894531 110.101562 3.980469 112.1875 C 6.070312 114.273438 8.949219 115.5625 12.132812 115.5625 L 31.605469 115.5625 C 27.945312 114.863281 25.179688 111.644531 25.179688 107.777344 Z M 25.179688 107.78125 " fill-opacity="1" fill-rule="nonzero"/></g><g clip-path="url(#9504f2e2f1)"><path fill="#38b6ff" d="M 12.132812 23.339844 L 23.296875 23.339844 C 26.484375 23.339844 29.363281 24.632812 31.449219 26.71875 C 32.222656 27.488281 32.882812 28.371094 33.410156 29.335938 L 40.746094 29.335938 C 40.671875 28.632812 40.628906 27.921875 40.628906 27.199219 C 40.628906 16.480469 49.316406 7.796875 60.035156 7.796875 C 70.75 7.796875 79.441406 16.484375 79.441406 27.199219 C 79.441406 27.921875 79.398438 28.632812 79.320312 29.335938 L 98.796875 29.335938 C 100.742188 25.789062 104.5 23.378906 108.820312 23.34375 L 109.984375 19.875 C 110.785156 17.484375 113.019531 15.878906 115.539062 15.878906 L 121.886719 15.878906 L 121.886719 15.492188 C 121.886719 14.640625 122.578125 13.945312 123.433594 13.945312 L 132.605469 13.945312 C 132.734375 13.253906 132.808594 12.542969 132.808594 11.8125 C 132.808594 8.625 131.515625 5.746094 129.429688 3.660156 C 127.34375 1.570312 124.460938 0.28125 121.28125 0.28125 L 12.132812 0.28125 C 5.769531 0.28125 0.605469 5.445312 0.605469 11.8125 C 0.605469 14.996094 1.894531 17.878906 3.980469 19.964844 C 6.070312 22.050781 8.949219 23.339844 12.132812 23.339844 Z M 12.132812 23.339844 " fill-opacity="1" fill-rule="nonzero"/></g><g clip-path="url(#937a944f2e)"><path fill="#38b6ff" d="M 132.804688 57.925781 C 132.804688 54.742188 131.515625 51.859375 129.429688 49.773438 C 127.34375 47.6875 124.460938 46.398438 121.277344 46.398438 L 108.914062 46.398438 C 108.878906 46.398438 108.847656 46.394531 108.808594 46.394531 L 106.339844 57.441406 L 118.554688 57.441406 C 118.820312 57.441406 119.039062 57.660156 119.039062 57.925781 C 119.039062 58.191406 118.820312 58.410156 118.554688 58.410156 L 106.121094 58.410156 L 100.835938 82.035156 L 100.648438 82.859375 C 100.625 82.984375 100.589844 83.097656 100.550781 83.207031 L 97.460938 95.167969 C 96.675781 98.207031 93.933594 100.332031 90.792969 100.332031 L 87.695312 100.332031 C 90.730469 101.445312 92.894531 104.359375 92.894531 107.78125 C 92.894531 111.648438 90.125 114.863281 86.464844 115.566406 L 121.28125 115.566406 C 127.644531 115.566406 132.808594 110.402344 132.808594 104.039062 C 132.808594 100.855469 131.519531 97.972656 129.433594 95.886719 C 127.574219 94.03125 125.085938 92.804688 122.316406 92.558594 C 122.234375 92.710938 122.074219 92.816406 121.890625 92.816406 L 101.890625 92.816406 C 101.625 92.816406 101.410156 92.601562 101.410156 92.332031 C 101.410156 92.066406 101.625 91.847656 101.890625 91.847656 L 115.503906 91.847656 C 113.871094 91.269531 112.402344 90.335938 111.203125 89.132812 C 109.117188 87.046875 107.828125 84.164062 107.828125 80.980469 C 107.828125 74.617188 112.988281 69.453125 119.355469 69.453125 L 121.28125 69.453125 C 127.648438 69.453125 132.8125 64.292969 132.8125 57.925781 Z M 110.09375 96.539062 C 110.359375 96.539062 110.578125 96.757812 110.578125 97.023438 C 110.578125 97.289062 110.359375 97.507812 110.09375 97.507812 L 100.988281 97.507812 C 100.722656 97.507812 100.507812 97.289062 100.507812 97.023438 C 100.507812 96.757812 100.722656 96.539062 100.988281 96.539062 Z M 110.09375 96.539062 " fill-opacity="1" fill-rule="nonzero"/></g><g clip-path="url(#523a3540ab)"><path fill="#38b6ff" d="M 82.222656 100.332031 L 35.84375 100.332031 C 38.878906 101.445312 41.042969 104.363281 41.042969 107.78125 C 41.042969 111.648438 38.273438 114.867188 34.613281 115.566406 L 83.453125 115.566406 C 79.792969 114.867188 77.027344 111.648438 77.027344 107.78125 C 77.027344 104.363281 79.191406 101.449219 82.222656 100.332031 Z M 50.234375 107.378906 L 45.484375 107.378906 C 45.214844 107.378906 45 107.164062 45 106.894531 C 45 106.628906 45.214844 106.410156 45.484375 106.410156 L 50.234375 106.410156 C 50.5 106.410156 50.71875 106.628906 50.71875 106.894531 C 50.71875 107.164062 50.5 107.378906 50.234375 107.378906 Z M 53.367188 103.074219 L 43.6875 103.074219 C 43.421875 103.074219 43.207031 102.859375 43.207031 102.589844 C 43.207031 102.324219 43.421875 102.105469 43.6875 102.105469 L 53.367188 102.105469 C 53.632812 102.105469 53.847656 102.324219 53.847656 102.589844 C 53.847656 102.859375 53.632812 103.074219 53.367188 103.074219 Z M 53.367188 103.074219 " fill-opacity="1" fill-rule="nonzero"/></g></g></g></g></g></svg>