<svg class="svg-icon" style="width: 1em;height: 1em;vertical-align: middle;fill: currentColor;overflow: hidden;" viewBox="0 0 1024 1024" version="1.1" xmlns="http://www.w3.org/2000/svg"><path d="M504.039226 18.465032c273.639226 0 495.483871 221.844645 495.483871 495.483871 0 273.639226-221.844645 495.483871-495.483871 495.483871-273.672258 0-495.483871-221.844645-495.483871-495.483871 0-273.639226 221.811613-495.483871 495.483871-495.483871z m0 66.064516c-237.171613 0-429.419355 192.247742-429.419355 429.419355s192.247742 429.419355 429.419355 429.419355 429.419355-192.247742 429.419355-429.419355-192.247742-429.419355-429.419355-429.419355z m-116.934194 616.282839l-2.510451-2.840774-137.348129-137.315097A33.032258 33.032258 0 0 1 293.987097 513.981935l116.603871 116.603871 303.533419-303.467354a33.032258 33.032258 0 0 1 46.707613 46.707613l-324.376774 324.47587a32.900129 32.900129 0 0 1-23.684129 12.155871h-4.228129a32.900129 32.900129 0 0 1-21.437936-9.612387z" fill="#3586FF" /></svg>